<svg xmlns="http://www.w3.org/2000/svg" viewBox="0 0 1024 768"><defs><style>.cls-1,.cls-2,.cls-3,.cls-4,.cls-5,.cls-6,.cls-7{stroke:#000;stroke-width:3px;}.cls-1,.cls-10,.cls-2,.cls-3,.cls-4,.cls-5,.cls-6,.cls-7,.cls-9{stroke-miterlimit:10;}.cls-11,.cls-2,.cls-3,.cls-4,.cls-5,.cls-8,.cls-9{fill:none;}.cls-3{stroke-dasharray:11.96 11.96;}.cls-4{stroke-dasharray:11.7 11.7;}.cls-5{stroke-dasharray:11.89 11.89;}.cls-6{fill:#ffdcdc;}.cls-7{fill:#ededed;}.cls-11,.cls-8{stroke:#0071b8;stroke-linejoin:round;}.cls-11,.cls-8,.cls-9{stroke-linecap:round;}.cls-8,.cls-9{stroke-width:10px;}.cls-9{stroke:#ffdcdc;}.cls-10{fill:#d2faff;stroke:#9cdeff;stroke-width:4px;}.cls-11{stroke-width:5.04px;}</style></defs><g id="Dibujo"><path class="cls-1" d="M448.48,299.59c12.31,58.14,30,146.75,15.79,204.45-12,48.73-26.45,93.33-36.85,120.54-3.56,9.32-15.64,31.48-9.63,39.44,5.07,6.72,18.33,5.56,26.75,5.66,24.54.28,40.67.4,64-7,71.48-22.78,154.61,15,222.17-17.58,7.76-3.74,16.15-10.48,14.71-19-1-5.82-13.58-6.13-38-4.81-30.11,1.63-51.55,7.93-78.88,8.66-26.2.7-77.56-4.34-102.42,4-18.56,6.22-44.48,14.83-56.41,7.19-3-1.9-11-7-6.26-26.14,6.6-26.64,24.35-57.76,31.85-84.16,14.08-49.56-5.11-177.94-13.49-228.78"/><path class="cls-2" d="M416.48,646.53q-3,0-6,0"/><path class="cls-3" d="M398.53,646.14a340.06,340.06,0,0,1-37.93-4c-12.82-2.08-25.88-5.06-36.6-12.4-13.24-9.07-21.59-24.09-25.15-39.74s-2.77-32-.69-47.88A304.34,304.34,0,0,1,339.73,424c19.81-44,15-95,20.53-142.95a323.45,323.45,0,0,1,25.81-94.57c7.85-17.64,17.49-34.85,31.41-48.25,21.38-20.59,50.69-30.31,79.72-39.51a246.84,246.84,0,0,1,161.58,13.51c83.7,47.06,119,147,136.64,207,9.43,32.17,14.46,65.58,25.33,97.29,17.39,50.75,49.73,97.57,52.92,151.12.67,11.27-.14,23.11-5.84,32.85-11.12,19-36,23.63-57.88,26.33-18.6,2.3-34.7,4.32-52.41,6.38"/><path class="cls-2" d="M751.59,633.86l-6,.68"/><path class="cls-2" d="M435.64,583.88c-2-.48-4-.87-5.88-1.21"/><path class="cls-4" d="M418.14,581.34c-25.3-1.52-41.42,5.84-49-13.19C361,547.86,397.88,470.81,416,408.27c8.19-28.33,3.89-69.21,16.62-97.49"/><path class="cls-2" d="M435.21,305.56a56.28,56.28,0,0,1,3.22-5.06"/><path class="cls-2" d="M692.1,566q2.92-.69,5.88-1.2"/><path class="cls-5" d="M709.77,563.27c30-2.6,58.78,2.86,66.5-16.44,8.13-20.3-28.77-97.35-46.85-159.88-8.68-30-41.36-175.82-97.68-202.52"/><path class="cls-2" d="M626.22,182.23a41.92,41.92,0,0,0-5.82-1.44"/><path class="cls-6" d="M517.71,225.63c1.72,6.08,2.5,12.52,4.08,18.37a1.94,1.94,0,0,0,.49,1,1.78,1.78,0,0,0,1.22.3,21.5,21.5,0,0,0,11.86-3.6,3,3,0,0,0,1.27-1.36,3.18,3.18,0,0,0-.13-1.85q-2.32-8.44-4.68-16.87"/><path class="cls-6" d="M221.07,659c10.2-7.91,20.15-40.67,22.14-53.42,6.71-43.05,9.22-78,18-120.64s22.67-85,47.71-120.68c14.73-21,33.36-39.52,55.68-52.14,27-15.28,58.17-21.32,88.86-25.88l-.21,12.8c-42.67,4.65-74.69,11.85-108,43.63-18.34,14.93-43,51.86-51.36,74-24.25,64.51-25.13,110.93-36.39,181.88-2.46,15.5-14.06,59.34-28.6,71.57a18.73,18.73,0,0,1-13.25,4.22Z"/><rect class="cls-6" x="77.05" y="610.75" width="155.24" height="72.46" rx="36.23"/><rect class="cls-6" x="160.06" y="579.79" width="55.52" height="42.31" rx="17.43" transform="translate(100.83 -22.63) rotate(9.41)"/><rect class="cls-6" x="85.61" y="584.38" width="60" height="37.72" rx="17.11" transform="translate(-95.84 26.57) rotate(-9.29)"/><path class="cls-6" d="M510.48,187.69c-2.25.52-5.3,2.05-7.55,2.57a2.52,2.52,0,0,0-2.19,3.57,168.16,168.16,0,0,0,5.58,25.37c.62,2.06,1.37,4.24,3.05,5.59,2.77,2.21,6.79,1.33,10.2.35l16.68-4.84c1.74-.51,3.66-1.14,4.56-2.72a7,7,0,0,0,.53-3.91,141.51,141.51,0,0,0-5.08-29.53,5.2,5.2,0,0,0-1.26-2.52,4.53,4.53,0,0,0-3.55-.78c-2.32.23-6.7,2.39-6.78,2.47"/><path class="cls-7" d="M499.75,159.84q5.38,14.1,9.79,28.53a61.06,61.06,0,0,0,15.29-5c.38-.18-8-28.09-8.08-28"/><path class="cls-1" d="M479.05,643.93c-20.14,0-25.64-36.17,2.15-36.42,29.25-.27,113.22-6.28,142.09-10.94,6-1,12.21-5.57,16.84-9.45,10.43-8.74,7.77-40.16,4.18-53.28q-20.5-74.89-41-149.79c-7.22-26.39-6.93-47.7-9-75-1.74-23.38-7.17-52.24-9.37-75.58S575.54,186.07,558.5,170,512.8,148.6,494.31,163c-17.7,13.81-20.51,39.25-19.84,61.69.61,20.58.64,29,2.94,52.18l-31.87,9.37S427.17,231.88,438,184.48c.9-3.95,15.85-65.59,62.86-78.55,19.53-5.38,36.68-.17,44.84,2.3,28.73,8.68,49.27,31,65.29,55.47,23.57,36,8.2,106.6,13.35,149.34,5.43,45,17.61,109.11,20.79,123.82,5.36,24.77,39.95,109,45.1,123.06s-1.74,53.16-11.64,64.32"/><path class="cls-6" d="M537.25,241c2-1.74,3.76-3.36,6-1.94,6.62,4.19,22.35,57.3,2.46,57.61s-40.44-2.93-59.27,3.59c-4.77,1.65-9.36,3.82-14.23,5.12s-16.19,2.51-18.29-5.16c-1.36-5-.65-10.36.29-15.44a8.11,8.11,0,0,1,2.08-4.68c1.47-1.32,3.62-1.5,5.6-1.6l32.34-1.69c3.94-.21,8-.43,11.64-1.87s7-4.32,7.94-8.15c.8-3.3-.25-6.71-.78-10.06s-.36-7.24,2.18-9.47c2.19-1.92,2.56-2.14,5.46-2C527.23,245.6,531.54,246,537.25,241Z"/></g><g id="Flechas"><path class="cls-8" d="M620,267.34c-5.53-3.46-26.75-28.63-32.4-31.88-.4-.23-6.48,13.5-7.79,19.17-.56,2.44-4.35,17.83-5.3,20.15"/><path class="cls-8" d="M410,346.82c45.88-21.36,92.39-16,120.11-19.71,18.45-2.45,38.84-3.61,52-18.95,13.41-15.68,10.89-48.28,8.38-63.87"/></g><g id="Hinchado"><path class="cls-9" d="M336.27,262.14l-34-20.41"/><path class="cls-9" d="M338.3,243.78,307,219.28"/><path class="cls-9" d="M784,224.68a308.43,308.43,0,0,0,44.91-33.34"/><path class="cls-9" d="M782.67,202.94,816,176.39"/><path class="cls-9" d="M902.83,583.9a158.82,158.82,0,0,0,50.49-12.54"/><path class="cls-9" d="M900.2,614.26c9.73,3,19.56,6.13,29.73,6.86s20.85-1.08,29.12-7"/></g><g id="Números"><circle class="cls-10" cx="407.43" cy="396.25" r="32.13"/><path class="cls-11" d="M394.09,395.18s8.13-21.18,14.57-20.24c10,1.45,4.45,43.11,4.45,43.11"/></g></svg>