<svg xmlns="http://www.w3.org/2000/svg" viewBox="0 0 1024 768"><defs><style>.cls-1{fill:#8e8e8e;}.cls-10,.cls-2{fill:#fff;}.cls-11,.cls-13,.cls-14,.cls-16,.cls-17,.cls-3,.cls-4,.cls-5,.cls-6,.cls-7,.cls-8,.cls-9{fill:none;}.cls-10,.cls-11,.cls-12,.cls-3,.cls-4,.cls-5,.cls-6,.cls-7,.cls-8,.cls-9{stroke:#000;stroke-width:3px;}.cls-10,.cls-11,.cls-12,.cls-14,.cls-15,.cls-3,.cls-4,.cls-5,.cls-6,.cls-7,.cls-8,.cls-9{stroke-miterlimit:10;}.cls-4{stroke-dasharray:11.99 11.99;}.cls-5{stroke-dasharray:12.12 12.12;}.cls-6{stroke-dasharray:11.91 11.91;}.cls-7{stroke-dasharray:11.84 11.84;}.cls-8{stroke-dasharray:11.82 11.82;}.cls-9{stroke-dasharray:11.91 11.91;}.cls-11{stroke-dasharray:11.84 11.84;}.cls-12{fill:#ccc;}.cls-13,.cls-16,.cls-17{stroke:#0071b8;stroke-linejoin:round;}.cls-13,.cls-14,.cls-16,.cls-17{stroke-linecap:round;}.cls-13,.cls-14{stroke-width:10px;}.cls-14{stroke:#ffdcdc;}.cls-15{fill:#d2faff;stroke:#9cdeff;stroke-width:4px;}.cls-16{stroke-width:5.04px;}.cls-17{stroke-width:4.75px;}</style></defs><g id="Vectores"><circle class="cls-1" cx="209.9" cy="212.73" r="130.86" transform="translate(-88.94 210.73) rotate(-45)"/><path d="M209.9,83.36a129.36,129.36,0,1,1-91.48,37.89A128.52,128.52,0,0,1,209.9,83.36m0-3A132.37,132.37,0,1,0,342.26,212.73,132.37,132.37,0,0,0,209.9,80.36Z"/><path d="M327.37,456.92h-3.61q-3.47.12-6.87.44h-.21l-.3,0h-1l.32,3a107.58,107.58,0,0,1,11.65-.63v-3Zm-23.81,2.6c-1.13.25-2.25.52-3.37.8H300l-.2.05h-.22l-.16,0h-.24l-.16,0h-.29l-.11,0h-.26l-.11,0H298l-.1,0h-.31l-.09,0h-.34l0,0H296l-.13,0h-.23l-.22.07h0l0,0h-.05c-1.1.34-2.2.69-3.28,1.06l1,2.84a106.06,106.06,0,0,1,11.22-3.15l-.65-2.93Zm-22.66,7.74c-2.27,1.07-4.5,2.22-6.68,3.43h0l-.2.12h0l0,0h0l0,0h-.05l0,0h0l-.12.07h0l0,0h-.09l0,0h0l0,0h0l0,0h0l0,0h-.12l0,0h-.08l-.09.06h0l0,0h0l0,0h0l0,0h0a1,1,0,0,0-.17.1h0l0,0h0l0,0h0l0,0h0c-.79.46-1.58.92-2.36,1.4l1.57,2.56A105.78,105.78,0,0,1,282.18,470l-1.28-2.72Zm-20.42,12.52a109.38,109.38,0,0,0-9.07,7.86l2.09,2.15a108.75,108.75,0,0,1,8.82-7.64l-1.84-2.37Zm-17.22,16.65q-1.38,1.68-2.7,3.39h0l0,0h0l0,0h0l-.11.15h0l0,0h0l0,0v0l0,0h0v0h0l0,0h0l0,0v0h0l0,0v0l0,0h0v0l0,0h0l0,0h0l-.05.07h0l0,0h0l0,0h0l0,0h0l0,0h0q-2,2.63-3.77,5.37l2.5,1.65a107.05,107.05,0,0,1,6.95-9.37l-2.31-1.92Zm-13.19,20c-.34.65-.66,1.3-1,2h0a2,2,0,0,0-.1.21h0v0h0v0h0v0h0v0h0l0,.08h0l0,0v0l0,0v.18h0l0,.1h0v0h0l0,0h0l0,0h0l0,0h0v0h0l-.06.15h0v0h0l0,0h0l0,0h0l0,0h0c0,.08-.07.15-.1.23h0l0,0h0l0,0h0c-.45,1-.89,2-1.32,3h0l0,0h0a2.29,2.29,0,0,1-.1.23h0v0h0l0,0h0l0,0h0v0h0l-.07.14h0v0h0v0h0v.07h0v0h0v0h0l0,.06h0V524l0,0v.05h0l0,0h0v.12h0l0,0h0v0h0v0h0l-.05.13h0l0,0h0v0h0v0h0l0,0h0q-.54,1.32-1.05,2.67l2.8,1.06a106.72,106.72,0,0,1,4.74-10.66l-2.67-1.36Zm-8.51,22.39q-1,4-1.77,8.13h0v0h0v0h0a1.85,1.85,0,0,0,0,.23h0v0h0v0h0v.08h0v.08h0v.34h0V548h0v0h0l0,.15h0v0h0v0h0v0h0v0h0v0h0c-.12.73-.23,1.45-.34,2.18l3,.42a105.72,105.72,0,0,1,2.29-11.44l-2.91-.74Zm-3.39,23.71v.08h0v.53h0v.1h0v.05h0v.1h0v0h0v0h0v.1h0v.05h0v.1h0v0h0V564h0v0h0v.11h0v.1h0v0h0v.1h0v.06h0v0h0v.11h0v.05h0v.1h0v.06h0v0h0v0h0V565h0v.05h0v.11h0v.11h0v0h0v.06h0v0h0v.22h0v0h0v.06h0V566h0v.1h0v0h0v.09h0v.08h0v0h0v0h0v0h0v0h0v0h0v0h0v0h0v0h0V567h0v0h0v0h0v0h0v0h0v0h0v0h0v0h0v.63h0v.25h0v.12h0v.09h0v0h0v.09h0v0h0v.09h0v.12h0v.13h0c.05,1.87.14,3.73.28,5.58l3-.23c-.2-2.68-.3-5.4-.3-8.11,0-1.18,0-2.38.06-3.56l-3-.09Zm4.75,23.33-2.94.55a107,107,0,0,0,2.85,11.65l2.87-.87a107.58,107.58,0,0,1-2.78-11.33Zm6.79,22.28L227,609.33q1.17,2.7,2.47,5.32h0l0,0h0l.12.24h0l0,0h0v0h0l.1.21h0l0,0h0l0,0h0l0,0h0l0,0h0l.07.12h0l0,0h0l0,0h0l0,0h0l0,0h0l.07.12h0l0,0h0l0,0h0l0,0h0l0,0h0l0,0h0l0,.08h0l0,0h0l0,0v0l0,0h0l0,0v.05h0v0h0l0,.08h0l0,0h0l0,0h0v0h0v0h0v0h0l0,0h0l0,0h0l0,0h0v0h0v0h0v0h0v0h0l0,0h0l0,.08h0v0h0v0h0l0,0h0l0,0h0l0,0h0v0h0l0,0h0l0,0h0v.07h0v0h0v0h0v0h0l0,.08h0v0h0v0h0l0,0h0l0,0h0l0,0h0v0h0l0,.08h0v0h0v0h0v0h0v0h0l0,0h0l0,.08h0l0,0h0l0,0h0l0,0v.09h0l0,0h0l0,.05h0l0,0h0l0,0v0l0,0v.08h0v0h0l0,.08h0l0,0h0l0,0h0l0,0h0l0,0h0v0h0l0,0h0l0,.08h0l0,0h0l0,0h0l0,0h0v0h0l0,0h0l.07.12h0l0,0h0l0,0h0v0h0l0,0h0l.09.16h0l0,0h0l0,0h0l0,0h0l0,0h0l2.61-1.48a106.73,106.73,0,0,1-5.19-10.44Zm11.5,20.26-2.43,1.75a109.33,109.33,0,0,0,7.55,9.32l2.22-2a108,108,0,0,1-7.34-9.06Zm15.63,17.27-2,2.25.89.78h0l.16.13h0l0,0h0l0,0h0l0,0h0l0,0h0l0,0h0l.05,0h0l0,0h0l0,0h0l0,0h0l0,0h0v0h0l0,0h0l0,0h0l0,0h0l0,0h0l0,0h0l0,0h0l.07.06h0l0,0h0l0,0h0l0,0h0l0,0h0l0,0h0l.1.09h0l0,0h0l0,0h0l0,0h0l0,0h0l.1.09h0l0,0h0l0,0h0l0,0h0l.15.11h0l0,0h0l0,0h0l.21.17h0l0,0h0l.25.2h0l.18.15h0l0,0h0l0,0h0l0,0h0l.15.12h0l0,0h0l0,0h0l0,0h0l0,0h0l.11.09h0l0,0h0l0,0h0l0,0h0l0,0h0l.11.09h0l0,0h0l0,0h0l0,0h0l0,0h0l.08.06h0l0,0h0l0,0h0l0,0h0l0,0h0l0,0h0l0,0h0l0,0h0l0,0h0l0,0h0l0,0h0v0h0l0,0h0l0,0h0l0,0h0l0,0h0v0h0l0,0,0,0,0,0h0l0,0h0l0,0h0l0,0h0l0,0h0l0,0h0l.09.07h0l0,0h0l0,0h0l0,0h0l.12.1h0l0,0h0l0,0h0l0,0h0l.19.15h0l0,0h0l0,0h0c1,.79,2.05,1.55,3.1,2.3h0l0,0h0l0,0h0l0,0h0l.1.07h0l0,0h0l0,0h0l1.74-2.45a104.69,104.69,0,0,1-9.14-7.26Zm19,13.48-1.46,2.62q4.08,2.26,8.37,4.19h0l0,0h0l0,0h0l.21.09h.09l0,0h0l0,0h0l.12.06h.18l0,0h0l0,0h.24l.18.08h0l0,0h.05l1.06.45,1.16-2.77a107.86,107.86,0,0,1-10.49-5.09Zm21.48,9-.85,2.87h0l0,0h0l.17.05h.18l.31.09h0c1.67.48,3.35.92,5.06,1.32h.14l.31.08h.14l.23,0h.28l.09,0h1.16l.16,0H305l.25.06h.13c.91.19,1.83.36,2.76.53l.52-3a104.45,104.45,0,0,1-11.35-2.66Zm22.93,4.07-.2,3,.65,0h7.46q1.53,0,3-.06h.29l.57,0-.13-3c-1.51.06-3,.09-4.56.09-2.36,0-4.76-.08-7.11-.23Zm34.7-3.38a105.22,105.22,0,0,1-11.42,2.39l.46,3c1-.16,2-.33,3-.51h.71l.16,0h.25c2-.39,4.05-.84,6.05-1.34h.26l.09,0h.34l.86-.22-.78-2.9Zm21.69-8.48A105.62,105.62,0,0,1,366,665.2l1.09,2.79.11,0h.09l0,0h0l.15-.06h.24l.1,0h.5l0,0h0l0,0h0l.09,0h.05l0,0h.1l.17-.07h0l0,0h0c2.79-1.15,5.53-2.42,8.2-3.79h0l0,0h0l0,0h0l0,0h0l.08,0h0l0,0h0l0,0h0l0,0h.14l.06,0h0l0,0h0l0,0h0l0,0h0l0,0h0l.19-.1-1.39-2.66Zm19.32-13a109.62,109.62,0,0,1-9.3,7l1.67,2.48c1.2-.8,2.39-1.64,3.55-2.49h0l.23-.17h0l0,0h0a1.33,1.33,0,0,0,.19-.14h0l0,0h0l0,0h0l0,0h0l0,0h0l.13-.09h0l0,0h0l0,0h0l0,0h0l0,0h0l.12-.09h0l0,0h0l0,0h0l0,0h0l0,0h0l.13-.1h0l0,0h0l0,0h0l0,0h0l0,0h0l.13-.1h0l0,0h0l0,0h0l0,0h0l.16-.13h0l0,0h0l0,0h0l0,0h0l0,0h0l.13-.1h0l0,0h0l0,0h0l0,0h0l0,0h0l.13-.1h0l0,0h0l0,0h0l0,0h0l0,0h0l.16-.12h0l0,0h0l.26-.2h0l0,0h0l0,0h0c1-.82,2.06-1.66,3.07-2.51L396,647.35Zm16-16.9a104.86,104.86,0,0,1-7.55,8.89l2.17,2.06a110.78,110.78,0,0,0,7.77-9.13L412,630.45Zm12-20a105.56,105.56,0,0,1-5.44,10.31l2.57,1.55c.26-.43.51-.86.76-1.29h0l.12-.2h0l0,0h0l0,0h0l0,0h0l.09-.15h0l0,0h0v0h0l0,0h0l0,0h0v0h0l0,0h0v0h0v0l0,0v-.14h0l0,0v0l0,0v-.08h0v0h0v0h0v0h0l.05-.09h0v0h0v0h0v-.08l0,0h0l.06-.1h0v0h0v0h0v0h0l0,0h0l0,0h0l.08-.13h0v0h0v0h0v0h0l0,0h0l0,0v0l.07-.13h0v0h0v0h0v0h0l0,0h0l0,0h0l.05-.1h0v0h0v0h0v-.1h0l.05-.09h0l0,0h0v0h0V618h0v0h0l.06-.1h0l0,0h0l0,0v0l0,0v0l0,0v0h0l0-.08v-.24h0l0,0h0v-.14l0,0v0l0,0V617l0,0v-.26l0,0h0l0,0h0v0h0v0h0v0h0v-.07h0l0-.08h0l0,0h0v0h0v0h0l0,0h0l0,0h0l.06-.12h0l0,0h0l0,0h0l0,0h0l0,0h0l0,0h0l.06-.13h0l0,0h0l0,0h0l0,0h0l0,0h0l.1-.21h0l0,0h0l0,0h0l.1-.21h0l0,0h0v0h0l.12-.25h0l0,0h0l.13-.25h0l0-.08h0l.12-.26h0c.1-.19.19-.39.29-.59h0l0,0h0l0,0h0l.1-.21h0l0,0h0l0,0h0l0,0h0l.08-.17h0l0,0h0l0,0h0l0,0h0l0,0h0l.06-.13h0l0,0h0l0,0h0l0,0h0l0,0h0l0,0h0l0-.09h0l0,0h0v0h0V612h0l0-.05h0v0h0l0,0h0v0h0v0h0v0L424,610.48Zm7.32-22.11a104.57,104.57,0,0,1-3.05,11.26l2.85.94c0-.07.05-.15.08-.22h0v0h0v0h0v0h0v0h0v-.11l0,0h0v0h0v-.08h0v0h0v0h0v0h0q1.59-4.95,2.72-10.09h0v0h0v0h0l.06-.25h0v0h0v0h0v0h0v0h0v0h0l0-.13-2.94-.62Zm5.32-23.21-3,0v1c0,3.56-.17,7.15-.52,10.66l3,.3c.08-.76.14-1.52.2-2.28h0v-.13h0v0h0v-.08h0v0h0v0h0v0h0v0h0v0h0v0h0v0h0v0h0v0h0v0h0v0h0v0h0V574h0c.14-2,.22-4,.26-5.94h0v0h0v0h0v0h0v0h0v0h0v-.08h0v0h0v0h0v0h0v-.08h0v0h0v-.08h0V567h0v-.12h0v-.79h0V566h0v-.48h0v0h0v-.05h0v-.25Zm-2.83-23.79-2.92.68a106.17,106.17,0,0,1,2,11.49l3-.35q-.58-4.89-1.58-9.64h0c0-.1-.05-.21-.07-.31h0v0h0v0h0v0h0v0h0v0h0v0h0l0-.09h0v-.08h0v-.23h0v0h0l0-.11h0v0h0v0h0v0h0v0h0v0h0v0h0l-.18-.76Zm-8-22.59-2.7,1.31a105.2,105.2,0,0,1,4.48,10.76l2.83-1c-1-2.81-2.09-5.57-3.3-8.26h0l0,0h0v0h0a2.14,2.14,0,0,1-.1-.22h0v0h0l0,0h0v0h0v0h0v0h0l0-.07h0v0h0v0h0v-.09h0v0h0v0h0l0,0h0l0-.05h0v0h0v0h0l0,0h0l0,0h0l0,0h0l-.1-.21h0l0,0h0c-.22-.48-.45-1-.68-1.44Zm-12.7-20.3-2.36,1.86a104.88,104.88,0,0,1,6.72,9.53l2.55-1.59c-1-1.59-2-3.16-3.11-4.69h0l0,0h0l0,0h0l-.1-.15h0l0,0h0l0,0h0l0,0h0l0,0h0l-.08-.11h0l0,0h0l0,0h0l0,0h0l0,0h0l-.08-.12h0l0,0h0l0,0h0l0,0v0l0,0h0l0,0h0l0-.07h0l0,0h0v0l0,0h0l0,0h0l0,0h0l0,0h0l0,0h0l0,0v0l0,0h0v0h0l0,0v0l0,0h0l0,0h0l0,0v0h0l0,0v0l0,0v0h0l0,0h0l0,0h0l0,0h0l0,0v-.06h0v0l0,0v0h0l0,0,0,0v0l0,0h0l0,0v-.06l0,0h0l0,0v0l0,0v0l0,0h0v0l0,0v0h0v0h0l0,0h0l0,0v0l0,0h0l0,0v0l0,0v0h0l0,0v0l0,0h0l0,0h0l0,0v0l0,0h0v0l0,0v0h0v0l0,0v0l0,0v0l0,0h0v0l0,0v0h0v0l0,0h0l0,0h0l0,0v0l0,0h0v0l0,0v0h0l0,0v0l0,0h0l0,0h0l0,0v0l0,0h0v0l0,0v0h0l0,0h0l0,0h0l0,0h0l0,0v0l0,0h0v0l0,0v0h0l0,0h0l0,0h0l0,0h0l0,0v0l0,0h0l0,0v0h0l0,0h0l0,0h0l0,0h0l0,0h0l0,0h0l0,0h0l0,0h0l0,0h0l0,0h0l-.05-.07h0l0,0h0l0,0h0l0,0h0l0,0h0l-.12-.14h0l0,0h0l0,0Zm-16.82-17.06-1.89,2.33a105,105,0,0,1,8.63,7.85l2.13-2.11-1.14-1.15h0l0,0h0l0,0h0l-.14-.13h0l0,0h0l0,0h0l0,0h0v0l0,0h0l0,0h0l0,0h0l0,0h0l0,0h0l0,0h0l0,0h0l-.14-.12h0l0,0h0l0,0h0q-1.74-1.68-3.55-3.28h0l0,0h0l0,0h0l-.1-.09h0l0,0h0l0,0h0l0,0h0l0,0h0l0,0h0l-.07-.06h0l0,0h0l0,0h0v0h0l0,0h0l0,0h0l0,0h0l0,0h0l0,0h0l0,0h0l0,0h0l0,0h0q-1.29-1.11-2.61-2.19Zm-20.11-13-1.34,2.69A106.5,106.5,0,0,1,385,476.88l1.63-2.52h0l0,0h0l0,0h0l0,0h0l0,0h0l0,0h-.05l0,0h-.05l0,0h-.05l0,0h0l0,0h-.07l0,0H386l0,0h0l-.09-.06h-.08l0,0h-.08l-.09-.06h0l0,0h0l0,0h0l0,0h0l0,0h0l-.14-.09h0l0,0h0l0,0h0l0,0h0l0,0h0l-.17-.1h0l0,0h0l0,0h0l-.24-.15h0l0,0h0l-.27-.17h0l-.29-.17h0q-3.81-2.33-7.81-4.33Zm-22.47-8.29L353,463a105.38,105.38,0,0,1,11.14,3.43l1-2.81c-1.18-.44-2.38-.86-3.58-1.26h0l-.27-.09h-.17l-.19-.07h-.2l-.16-.05h-.25l-.14-.05H360l-.09,0h-.3l-.1,0h-.27l-.09,0h-.31l-.06,0h-.35l0,0h-1.1l-.09,0h-.27l-.13,0h-.23l-.27-.08h-.05c-.82-.22-1.64-.44-2.46-.64ZM330,457l-.07,3a104.94,104.94,0,0,1,11.63.91l.4-3q-5.33-.7-10.78-.9H330Z"/><path d="M327.37,433.82h-2.72c-3.12.06-6.2.23-9.26.51l.27,3c3.87-.34,7.81-.52,11.71-.52v-3ZM303.5,436c-.73.13-1.47.27-2.19.42h0l-.1,0h0l-.35.07h-.25l-.2,0H300l-.15,0h-.4l-.1,0h-1.48l-.11,0h-.39l-.16,0h-.33l-.27.06h-.14l-.36.08h0l-.09,0h0c-1.43.34-2.84.71-4.25,1.1l.8,2.89c3.75-1,7.6-1.92,11.43-2.62L303.5,436Zm-23.09,6.42-1.48.57h0l0,0h0l0,0h0l0,0h0l-.09,0h-.22l0,0h0l0,0h-.09c-2.05.82-4.08,1.69-6.07,2.61h0l0,0h-.26l0,0h0l-.09,0h0l-.08,0h0l0,0h0l-.05,0h0l-2.22,1.06,1.32,2.69c3.5-1.7,7.12-3.27,10.76-4.65l-1.07-2.81ZM258.87,452.9q-4.12,2.5-8.06,5.3h0l0,0h0l0,0h0l0,0h0l0,0h0l0,0h0l0,0h0l0,0h0c-.54.38-1.07.77-1.6,1.16l1.78,2.41c3.13-2.31,6.41-4.5,9.74-6.52l-1.56-2.57Zm-19.29,14.23c-3,2.65-5.87,5.44-8.61,8.35l2.19,2.06c2.67-2.84,5.5-5.59,8.41-8.17l-2-2.24Zm-16.43,17.45-.08.11h0l0,0h0l0,0h0l0,0h0l0,0h0l0,0h0v0l0,0v0l0,0v0l0,0v0l0,0h0l0,0h0q-2.16,2.79-4.18,5.69h0l0,0h0l0,0h0l-.17.25h0l0,0h0l0,0h0l0,0h0l0,0h0l0,0h0l0,0h0l0,0h0v.05l0,0v0h0l0,0h0l0,0h0v0h0v0h0l-.09.15h0l0,0h0l0,0h0l0,0h0l0,0h0l0,0h0l0,0h0l0,0h0c-.51.75-1,1.51-1.5,2.27L218.7,496c2.12-3.26,4.41-6.47,6.81-9.54l-2.36-1.85Zm-13,20.12q-1.29,2.43-2.47,4.94h0l0,0h0l0,0h0l0,0h0c0,.09-.09.19-.13.29h0v0h0v0h0v0h0v.08h0v.12h0v.12l0,0v0l0,0v.06h0l0,0v0l0,0h0l0,0v0l0,0h0l0,0v0l0,0h0V511h0v0h0v0h0l0,0h0l-.12.28h0l0,0h0l0,0h0v0h0l0,0h0v0h0v0h0c0,.13-.11.25-.16.37h0l0,.09h0l0,.05h0l0,0h0l0,0h0c-.07.14-.13.27-.19.41h0l0,0h0l0,0h0l0,0h0l0,0h0l0,0h0l0,0h0l0,0h0l0,.05h0l0,.09h0l0,0h0l0,0v.05h0v.08h0v.16l0,0h0v.08h0l-.12.29h0l0,0h0l0,.05h0c-.21.49-.42,1-.62,1.47l2.77,1.15c1.49-3.6,3.16-7.17,5-10.62l-2.65-1.39ZM201,526.84c-.09.28-.18.56-.26.84h0v.08h0v.31h0v0h0v.08h0v0h0v0h0v0h0l0,0h0v.05h0c-.77,2.61-1.47,5.24-2.08,7.91h0v.05h0v0h0v0h0v.05h0v0h0v.05h0l0,.1h0v.26h0v0h0v0c-.09.42-.19.85-.28,1.28l2.94.62c.81-3.81,1.81-7.62,3-11.34l-2.86-.89Zm-5,23.44q-.15,1.19-.27,2.37h0v0h0v0h0v0h0v0h0v0h0a.41.41,0,0,0,0,.11h0v.25h0v0h0v.44l0,.11h0v0h0v0h0v0h0v0h0v0h0a1.79,1.79,0,0,1,0,.23h0v0h0v0h0v0h0l0,.32h0q-.31,3.67-.42,7.41l3,.09c.11-3.9.4-7.84.87-11.69l-3-.36Zm2.29,23.78-3,.18c0,.27,0,.54.05.81h0v0h0v0h0v.1h0v0h0v.1h0v.32h0v0h0a.57.57,0,0,1,0,.13h0v0h0v0h0v0h0v0h0l0,.37h0c.06.88.14,1.75.23,2.62h0c0,.13,0,.27,0,.41h0v0h0v0h0v0h0l0,.27h0v.73h0v.1h0v.05h0v0h0v0h0v0h0v.05h0l0,.26h0v0h0c.19,1.61.4,3.2.64,4.79l3-.45c-.59-3.84-1-7.76-1.23-11.66Zm3.51,23.16-2.92.72c.36,1.43.73,2.85,1.13,4.27h0v0h0v.08h0v0h0v0h0v0h0v0h0v0h0l0,.07h0V603h0v0h0v0h0s0,.09,0,.14h0l0,0h0v0h0v0h0v.08h0l0,0h0v0h0l.09.29h0v.05h0l0,0h0v0h0l0,0h0c0,.16.09.32.14.48h0l.33,1.07h0l0,.05h0v0h0l.12.39h0l0,.09h0v0h0v.05h0v0h0l0,0h0c0,.08,0,.16.07.24h0l0,.05h0v0h0v0h0v0h0v0l0,0h0v0h0l0,0h0v0h0l0,0h0v.09h0v.29h0v0h0a1.09,1.09,0,0,0,0,.17h0l0,0h0v0h0l0,0h0v0h0l0,0h0v0h0l.48,1.41,2.84-1c-1.28-3.68-2.39-7.46-3.32-11.24Zm7.65,22.13-2.74,1.24.24.52h0l0,0h0l0,0h0v0h0v0h0v0h0v0h0l0,0h0l0,0h0a1.42,1.42,0,0,1,.08.18h0l0,.05h0v0h0v0h0v0h0l0,0v0l0,0h0l0,0v0l0,0h0v.17h0l0,.09h0l0,0v.24l0,0v0l0,0v0l0,0h0v.08h0v.09l0,0V623h0v.08h0v.08h0l0,0v.33h0l0,.07h0v0l0,0v0l0,0V624l0,0v.2l0,0v.11l0,0v.22h0l0,0v0l0,0h0v0h0v0h0l.06.13h0l0,0h0l0,0h0l0,0v.05h0v0h0l0,0v0l0,0h0l0,0h0v0h0l0,0h0l.16.31h0l0,.05h0l0,0h0l0,0h0l0,0h0l0,0h0l.27.53h0c.84,1.64,1.71,3.25,2.61,4.85l2.61-1.48c-1.92-3.39-3.7-6.91-5.3-10.46Zm11.53,20.39-2.46,1.71c2.28,3.29,4.7,6.48,7.26,9.54l2.31-1.92c-2.5-3-4.89-6.13-7.11-9.33Zm15,18-2.12,2.12q4.24,4.24,8.86,8.09l1.92-2.31c-3-2.49-5.9-5.15-8.66-7.9Zm18,15-1.7,2.47.74.51h0l0,0h0l0,0h0l0,0h0l0,0h0l0,0h0l0,0h0l0,0h0l0,0h0q3.72,2.52,7.62,4.78h0l0,0h0l0,0h0l0,0h.05l0,0h0l0,0h.05l0,0h0l0,0h0l.14.08h0l0,0h.08l0,0h.06l0,0h.06l0,0h0l0,0h.06l0,0h0l0,0h0l0,0h0l.31.18h0l0,0h0l0,0,1.47-2.62c-3.39-1.91-6.73-4-9.94-6.22Zm20.4,11.51L273.13,687q5.46,2.44,11.16,4.42l1-2.84c-3.68-1.27-7.35-2.72-10.9-4.32Zm22.15,7.62-.72,2.92q3.63.88,7.32,1.57h0l.46.08h.19l.26,0h.33l.1,0h.36c.92.16,1.83.31,2.76.45l.44-3c-3.85-.58-7.72-1.34-11.5-2.27Zm23.16,3.48-.17,3c1.76.1,3.52.17,5.31.2h3.41l2.37,0h.9l-.09-3c-1.33,0-2.69.06-4,.06-2.56,0-5.15-.08-7.7-.23Zm35-2.65c-3.8.81-7.69,1.46-11.57,1.93l.37,3q3.29-.39,6.53-1h.1l.26-.05h.77l.32,0h0c1.29-.23,2.57-.49,3.85-.76l-.63-2.93Zm22.35-7c-3.59,1.5-7.3,2.85-11,4l.9,2.86c1.76-.55,3.51-1.14,5.23-1.76h0l.56-.2h0l0,0h0l.05,0h0l.47-.17h0l0,0h0l.05,0h0l.05,0h0q2.4-.89,4.75-1.87L377,685.68Zm20.72-10.92c-3.27,2.12-6.67,4.12-10.11,5.93l1.4,2.66q4.61-2.43,9-5.2h0l0,0h0l0,0h0l0,0h0l0,0h0l0,0h0l0,0h0l0,0h0l0,0h0l0,0h0l0,0h0l0,0h0l0,0h0l0,0h.05l0,0h0l0,0h.05l0,0h0l0,0h0l0,0h0l0,0h0l.47-.3-1.64-2.52Zm18.42-14.48c-2.83,2.68-5.82,5.25-8.88,7.66l1.85,2.36c.64-.51,1.27-1,1.9-1.53h0l0,0h0l0,0h0l0,0h0l0,0h0l0,0,0,0h0l0,0h0l0,0h0l0,0h0l0,0h0l0,0h0q2.68-2.21,5.25-4.55h0l0,0h0l0,0h0l0,0h0l0,0v0l0,0h0l0,0,0,0h0l0,0h0l0,0h0l0,0h0l0,0h0l0,0h0l1.13-1.06-2.06-2.18Zm15.52-17.55c-2.31,3.14-4.78,6.21-7.37,9.13l2.25,2q2.11-2.39,4.11-4.88h0l.38-.47h0l0,0h0l0,0h0l0,0v0l0,0v0l0,0h0l0,0h0l0,0v0l0,0v0l0,0v0l0,0,0,0h0l0,0h0l.12-.15h0l0,0h0l0,0h0l0,0h0l0,0h0l0,0h0l0,0h0l0,0h0l0,0h0c.8-1,1.57-2,2.34-3.08l-2.42-1.78Zm12.11-20.05c-1.7,3.5-3.58,7-5.6,10.3l2.57,1.55c.38-.62.75-1.25,1.12-1.89h0l0,0h0l0,0h0l0,0h0l0,0h0l0,0h0l0,0h0l0,0h0l0,0h0l0,0h0l.09-.15h0l0,0h0V632l0,0v-.08l0,0v-.11l0,0v0h0l0,0h0l0,0h0l0,0h0l.07-.13h0l0,0h0l0,0h0l0,0h0l0,0h0l0,0h0l0,0h0l0,0h0l0,0h0l0,0h0l0,0h0q1.56-2.78,3-5.61h0l0,0h0l0,0h0l0,0h0l0,0h0l0,0h0l0,0h0l0,0h0l0,0h0l0,0h0l0-.09h0l0,0h0l0,0v-.22l0,0v-.14h0v0h0c.05-.11.1-.22.16-.33h0l0,0h0l0,0h0l-2.7-1.32Zm8.28-21.9c-1,3.75-2.26,7.5-3.64,11.14l2.81,1.06q1-2.62,1.87-5.29h0v0h0l0,0h0v0h0l0,0h0v0h0l0,0h0l.05-.17h0v0h0v-.08h0v-.25h0l0,0h0l.05-.14h0v0h0l0,0h0v0h0l0,0h0v0h0l0,0h0v0h0q.75-2.36,1.41-4.74l-2.89-.8Zm4.17-23c-.34,3.88-.87,7.79-1.56,11.62l2.95.53h0v0h0v-.08h0v0h0v-.08h0l0-.08h0v-.41h0l0-.1h0v-.19h0v0h0c0-.09,0-.17.05-.26h0v-.1h0c0-.14.05-.27.07-.41h0c.21-1.23.39-2.46.56-3.7h0l.06-.41h0v0h0v-.05h0v0h0v-.05h0l0-.2h0v0h0v0h0v0h0v0h0v0h0v-.05h0v-.06h0v-.83h0l0-.13h0v0h0v0h0v-.13h0v0h0a2.36,2.36,0,0,1,0-.28h0v0h0v0h0c.13-1.15.25-2.31.35-3.47l-3-.26Zm3-23.71-3,.27c.35,3.87.53,7.81.54,11.72h3q0-6.06-.55-12Zm-4.33-23.57-2.89.81c1,3.74,1.94,7.59,2.64,11.42l2.95-.54c-.18-1-.36-1.92-.56-2.87h0v0h0v-.13h0v0h0v-.18h0v-.28h0v0h0l-.07-.3h0v-.05h0v0h0v-.05h0q-.67-3.12-1.49-6.18h0l0,0h0v-.05h0v0h0a2.17,2.17,0,0,1-.07-.24h0v0h0v0h0v0h0v0h0v-.13h0l0,0h0V531h0v0h0v-.25h0v-.08h0c0-.06,0-.11-.05-.16Zm-8.54-22.4-2.69,1.32c1.71,3.5,3.28,7.12,4.67,10.76l2.8-1.07v0a2.49,2.49,0,0,1-.11-.29h0v0h0q-2.1-5.44-4.65-10.65Zm-12.44-20.48-2.42,1.79c2.32,3.13,4.52,6.4,6.54,9.73l2.56-1.56c-2.08-3.42-4.31-6.75-6.68-10ZM418,469.66l-2.05,2.19c2.83,2.66,5.59,5.49,8.17,8.4l2.25-2,0,0h0l0,0h0l0,0v0l0,0,0,0h0l0,0,0,0v0h0l0,0h0l0,0h0l0,0h0l0,0h0l0,0h0q-3.82-4.26-8-8.18ZM399.07,454.9l-1.63,2.52c3.27,2.11,6.48,4.4,9.55,6.8l1.85-2.37q-2.46-1.92-5-3.74h0l0,0h0l0,0h0l0,0h0l0,0h0l0,0h-.05l0,0h0l0,0h0l0,0h0l0,0h0l0,0,0,0,0,0h0l0,0h0l0,0h0l0,0h0l0,0h0l0,0h-.05l0,0h0l0,0h0l0,0h0l0,0h0l0,0h0l0,0h0l0,0h0l-.41-.28h0c-1.09-.75-2.19-1.48-3.3-2.2Zm-21.23-11.12-1.15,2.77c3.6,1.49,7.17,3.16,10.62,5l1.39-2.65c-.89-.47-1.8-.93-2.7-1.38h0l-.05,0h0l0,0h0l0,0h0l-.42-.2h0l0,0h0l0,0h-.18l0,0h0l-.25-.12h0l0,0h0l0,0h0l0,0h0l0,0h0l0,0h0l0,0h0l0,0h0l0,0h0l0,0h0l-.2-.1h0l0,0h0l0,0h0l0,0h0l0,0h-.27l-.2-.09h0l0,0h0l0,0h0l0,0h0l0,0h0l0,0h-.14l0,0h0l-.34-.16h0l0,0h0l0,0h0l0,0h0l0,0h0l0,0h0l0,0h0q-2.39-1.1-4.82-2.1Zm-22.9-7.08-.62,2.93c3.81.81,7.63,1.8,11.34,2.95l.89-2.87c-1.63-.5-3.28-1-4.94-1.42h-.23l-.17-.05h-.41l-.14,0h-.31q-2.69-.69-5.41-1.26Zm-23.8-2.83-.09,3c3.91.11,7.84.4,11.7.85l.35-3c-.7-.09-1.41-.17-2.12-.24h-.65l-.15,0H340l-.31,0h0l-2.09-.17h-.11l-.26,0h-1.44c-1.53-.09-3.07-.16-4.61-.21Z"/><circle class="cls-2" cx="209.9" cy="212.73" r="107.77" transform="translate(-88.94 210.73) rotate(-45)"/><path d="M209.9,106.46A106.27,106.27,0,1,1,103.63,212.73,106.38,106.38,0,0,1,209.9,106.46m0-3A109.27,109.27,0,1,0,319.16,212.73,109.27,109.27,0,0,0,209.9,103.46Z"/><path d="M802.18,470.07A106.27,106.27,0,1,1,695.91,576.34,106.39,106.39,0,0,1,802.18,470.07m0-3A109.27,109.27,0,1,0,911.45,576.34,109.27,109.27,0,0,0,802.18,467.07Z"/><path d="M802.18,447a129.36,129.36,0,1,1-91.47,37.89A128.48,128.48,0,0,1,802.18,447m0-3A132.36,132.36,0,1,0,934.54,576.34,132.36,132.36,0,0,0,802.18,444Z"/><path d="M534,546.65a42.81,42.81,0,1,1-42.81,42.81A42.85,42.85,0,0,1,534,546.65m0-3a45.81,45.81,0,1,0,45.8,45.81A45.81,45.81,0,0,0,534,543.65Z"/></g><g id="Rectas"><line class="cls-3" x1="237.58" y1="503.91" x2="242.34" y2="507.56"/><line class="cls-4" x1="251.86" y1="514.85" x2="399.37" y2="627.96"/><line class="cls-3" x1="404.13" y1="631.61" x2="408.89" y2="635.26"/><line class="cls-3" x1="398.32" y1="483.09" x2="394.73" y2="487.89"/><line class="cls-5" x1="387.47" y1="497.6" x2="274.88" y2="648.05"/><line class="cls-3" x1="271.25" y1="652.9" x2="267.65" y2="657.7"/><line class="cls-3" x1="286.23" y1="469.31" x2="288.56" y2="474.84"/><line class="cls-6" x1="293.19" y1="485.82" x2="364.9" y2="656"/><line class="cls-3" x1="367.21" y1="661.49" x2="369.54" y2="667.02"/><line class="cls-3" x1="339.54" y1="459.49" x2="339.07" y2="465.48"/><line class="cls-7" x1="338.14" y1="477.28" x2="323.77" y2="660.31"/><line class="cls-3" x1="323.31" y1="666.21" x2="322.84" y2="672.19"/><line class="cls-3" x1="423.38" y1="522.07" x2="418.15" y2="525"/><line class="cls-8" x1="407.83" y1="530.78" x2="247.97" y2="620.31"/><line class="cls-3" x1="242.81" y1="623.2" x2="237.58" y2="626.13"/><line class="cls-3" x1="433.21" y1="583.37" x2="427.25" y2="582.73"/><line class="cls-9" x1="415.41" y1="581.46" x2="231.87" y2="561.83"/><line class="cls-3" x1="225.95" y1="561.19" x2="219.98" y2="560.56"/><line class="cls-3" x1="714.76" y1="514.4" x2="886.06" y2="645.75"/><line class="cls-3" x1="874.35" y1="495.12" x2="744.83" y2="668.2"/><line class="cls-3" x1="762.41" y1="477.44" x2="845.59" y2="674.83"/><line class="cls-3" x1="816.71" y1="469.99" x2="800.02" y2="682.69"/><line class="cls-3" x1="900.56" y1="532.57" x2="714.76" y2="636.63"/><line class="cls-3" x1="908.01" y1="593.61" x2="697.16" y2="571.05"/></g><g id="Dibujo"><path class="cls-3" d="M801.88,267.73c3.06-1.74,6.28-3.64,7.93-6.75a10.33,10.33,0,0,0-1.92-11.77,12.07,12.07,0,0,0-11.82-2.81c-5.89,1.76-10,8.41-8.49,14.37s8.81,9.83,14.48,7.5C802.15,268.31,802.23,268.35,801.88,267.73Z"/><path class="cls-3" d="M778.66,265a33.39,33.39,0,0,0,8-18.76,68.42,68.42,0,0,0-11.65-3.3,40.73,40.73,0,0,1-4.87,19.2,9.79,9.79,0,0,0,9.57,1.87C780,264,780.34,263.91,778.66,265Z"/><path class="cls-3" d="M774.67,243.58a71.39,71.39,0,0,0-34.6-6.6c-3.06.19-6.25.63-8.79,2.35,2.43,6.16,2.41,13,2.37,19.59a43.51,43.51,0,0,1,30.56-.4"/><path class="cls-3" d="M803.84,267.45a23.36,23.36,0,0,1,7.82,10.76c.46,1.32-.7,2.77-2.06,3.14a7.43,7.43,0,0,1-4.12-.48c-11.46-3.72-22.17-9.42-33.33-14-2.3-.94-5-1.82-7.17-.62-9.46,5.16-19,10.41-26.74,18-.14.14.25.08.27-.11"/><path class="cls-3" d="M753.22,256.15c-.92,2.77-3.61,4.49-6.07,6.07a129.87,129.87,0,0,0-13,9.58c-4.36,3.65-8.76,8.11-9.3,13.77-.34,3.5.88,6.94,2,10.27,3.7,10.75,6.87,21.67,10,32.58,3,10.42,6.06,20.85,8.72,31.37,3.13,12.34,5.75,24.81,8.44,37.28a16.69,16.69,0,0,0,1.6,6.24,2.87,2.87,0,0,0,1.21,1.44,3.12,3.12,0,0,0,2.36-.25l18.46-7.24a3.87,3.87,0,0,0,1.49-.85c.9-1,.59-2.53.2-3.8-5.1-16.91-12.21-33.21-16.31-50.39-1.79-7.5-3-15.13-4.68-22.65a144,144,0,0,0-6.57-21.76,6.06,6.06,0,0,1-.3-3.7,6,6,0,0,1,1.61-2.14,64.1,64.1,0,0,1,7.8-6.75c1.41-1,2.9-1.87,4.21-3A8.54,8.54,0,0,0,768,278a17.93,17.93,0,0,0,.26-3.51c.1-2.92.84-6-.31-8.65l0,0,0,0-.32.27"/><path class="cls-10" d="M800,561.23c-7.07-25-32-133.33-36.09-157.91l9.46-4.38c7.76,27.6,36.17,151.32,38.15,158.31Z"/><path class="cls-3" d="M735.3,319.37c-16.19,3.24-30.23,13.27-42.16,24.67s-22.29,24.4-34.47,35.53c-16.93,15.47-37.41,27.2-59.61,33-13.65,3.56-27.78,4.85-41.74,7a361.84,361.84,0,0,0-70.58,18.2l.23-.08"/><path class="cls-3" d="M493.05,459.1c29.59-9,60.38-13.18,90.49-20.23s60.21-17.31,84.4-36.56c25.4-20.22,43.21-49.49,71-66.29"/><path class="cls-3" d="M745.78,358.43c-62.94,63.72-114.83,137-176.24,202.13"/><path class="cls-3" d="M673.59,397.56c-46.5,47.3-92.28,97.54-134.54,148.61"/><path class="cls-3" d="M508.89,551.33c-18.54-42.87-42.72-97-47.38-128.25-1-6.94,14.47-11.27,17.42-4.2,9.33,22.38,30.3,85.7,47.16,128.58"/><path class="cls-3" d="M446.21,334.32c9.43,32.17,17,52.19,26.17,80.95"/><path class="cls-3" d="M463.23,417.39C452.07,379.26,448.63,378.17,437,336"/><path class="cls-3" d="M488.78,309.3c-7.87-1.94-16.15-1.16-24.16.1-17.22,2.71-34.6,7.61-51.81,4.83-3-.48-6-1.2-9-.94A14.42,14.42,0,0,0,392.36,321a24.61,24.61,0,0,0-2.11,9.1,87.87,87.87,0,0,0-.26,10.64,21.42,21.42,0,0,0,1.4,7.91,8.59,8.59,0,0,0,5.79,5.2c4.36.92,8.22-2.61,11.66-5.44,12.75-10.54,29.84-14.45,46.38-15,11.08-.38,22.62.52,32.81-3.85,5-2.14,11.62-6.33,10.17-11.56C496.36,311.37,492.8,310.29,488.78,309.3Z"/><path class="cls-3" d="M341.61,571.27a10.36,10.36,0,0,0-7.43-4.55,10.67,10.67,0,0,0-10.11,5.55,11.36,11.36,0,0,0,.79,11.59,10.54,10.54,0,0,0,13,2.94C343.62,584,345,576.49,341.61,571.27Z"/><path class="cls-3" d="M336.17,582.13a6.48,6.48,0,0,0,1.36-6.36,4.8,4.8,0,0,0-9,.37,7.13,7.13,0,0,0-.15,3.05,5.29,5.29,0,0,0,.68,2.11,4.3,4.3,0,0,0,3.38,1.83C333.75,583.22,335.33,583.15,336.17,582.13Z"/><path class="cls-2" d="M376.09,580.43a80.79,80.79,0,0,0-2.76-21.15,55.33,55.33,0,0,0-7.38-16.9c-10.21-15-29.79-22-47.85-20-6.52.72-13.12,2.56-18.26,6.65s-8.29,9.82-10.82,15.73c-5,11.8-7.69,24.84-5.9,37.55s8.35,25,18.94,32.22C308,618.62,315,621,322,622.48a39.24,39.24,0,0,0,13.81.9c6.89-1,13.06-4.88,18.31-9.46C364,605.25,376.06,594.48,376.09,580.43Z"/><path class="cls-11" d="M376.09,580.43a80.79,80.79,0,0,0-2.76-21.15,55.33,55.33,0,0,0-7.38-16.9c-10.21-15-29.79-22-47.85-20-6.52.72-13.12,2.56-18.26,6.65s-8.29,9.82-10.82,15.73c-5,11.8-7.69,24.84-5.9,37.55s8.35,25,18.94,32.22C308,618.62,315,621,322,622.48a39.24,39.24,0,0,0,13.81.9c6.89-1,13.06-4.88,18.31-9.46C364,605.25,376.06,594.48,376.09,580.43Z"/><path class="cls-10" d="M580.41,595.15a409.26,409.26,0,0,0-48.19,8.47,6.68,6.68,0,0,1-4.07.11,4.43,4.43,0,0,1-2.4-3.76,13,13,0,0,1,.7-4.6c.75-2.67,1.63-5.54,3.85-7.19,1.94-1.43,4.48-1.63,6.88-1.78,22-1.41,59.35-7.07,66.18-6.3,3.6.41,4,3.17,4.17,5.21.11,1.71,0,5-.5,5.66-1.2,1.52-3.81,1.75-5.77,2"/><path class="cls-3" d="M582.37,612.6a7,7,0,0,0,.93,2.95,6.11,6.11,0,0,0,2.68,2c5.31,2.34,11.52,1.22,17-.8,2.8-1,5.81-2.64,6.59-5.51.69-2.54-.6-5.15-1.91-7.42q-4-7-8.62-13.6a3.93,3.93,0,0,0-2-1.76,4,4,0,0,0-1.75.06l-8.67,1.63a7.25,7.25,0,0,0-3.41,1.27c-2,1.63-1.5,4.48-1.21,7.19C582.22,599.53,581.66,607.88,582.37,612.6Z"/><path class="cls-10" d="M488.54,595.07c-50.54,1-136.84,4.86-140.85,4.69-4.91-.21-21,.34-27.95-5.72-4.42-3.88-6.85-11.95-5.69-17.72s4.27-8.46,8.41-12.65C337.72,548.21,449.93,458.19,466.35,444l7.28,22c-31.22,26.41-61.85,49.54-93.07,76-8.94,7.56-17.91,15.14-25.91,23.68-2.27,2.41-5.07,5.34-4.42,8.58,1.47,7.25,15.32,7.13,19.18,7,15-.49,95.79-4.43,120.84-3.82Z"/><path class="cls-10" d="M818.31,559.75a13.18,13.18,0,0,0-11.66-2,22.7,22.7,0,0,0-10.14,6.64,26.69,26.69,0,0,0-7.42,14.87c-.64,5.59,1.22,11.61,5.5,15.27a22.94,22.94,0,0,0,9.85,4.47c3.31.77,6.83,1.2,10.07.16,4.6-1.49,7.8-5.69,10-10,2.4-4.86,3.88-10.34,3.09-15.7S824.55,563.88,818.31,559.75Z"/><circle class="cls-10" cx="334.28" cy="581.01" r="6.91"/><circle class="cls-10" cx="809.59" cy="578.54" r="6.91"/><line class="cls-3" x1="204.69" y1="105.75" x2="221.51" y2="319.76"/><line class="cls-3" x1="316.29" y1="199" x2="104.11" y2="232.94"/><line class="cls-3" x1="297.33" y1="150.36" x2="125.82" y2="279.41"/><line class="cls-3" x1="255.45" y1="115.86" x2="172.9" y2="313.56"/><line class="cls-3" x1="106.55" y1="177.14" x2="310.48" y2="246.39"/><line class="cls-3" x1="154.38" y1="118.59" x2="275.93" y2="295.61"/><path class="cls-12" d="M242.48,229.64c3.25-9.57-3.26-25.77-6.44-30.39-6.79-9.85-19.8-15.57-31.51-13.15-15.44,3.18-19.32,12.87-21,16.77-3.32,7.76-3.22,14.33-2,22.69S187,242,194,246.78A36.52,36.52,0,0,0,207.09,252a26.06,26.06,0,0,0,9.09.6,28.25,28.25,0,0,0,12.17-5.23C237,241.32,240.25,236.19,242.48,229.64Z"/></g><g id="Flechas"><path class="cls-13" d="M211.57,422c3.34,4.57,14.83,38,11.18,42.34s-35.51-5.91-41.14-7.45"/><path class="cls-13" d="M304.46,592.61c-9.12-15-4.88-36.6,9.22-47a27,27,0,0,1,11.24-5.05c7.69-1.35,24.41,3.1,33.5,15.1,18.33,24.21,8.77,52-22.91,67.4-7.17,3.48-15.61,3.53-23.44,2C295.85,622,280.79,611,275,595.53c-2.95-7.82-3.49-16.37-2.86-24.71,1.29-17,7.53-33.77,18.71-46.62s27.41-21.52,44.43-22.36a49.91,49.91,0,0,1,23,4.12c10.76,4.87,19.14,13.94,25.54,23.87,7.7,11.93,11,25.87,14,39.74,9.8,44.61-33.55,77.63-50,82.1-15.89,4.32-41.52,6-66.78-3.09"/><path class="cls-13" d="M311.27,641.7c-4.38-1.44-39.14-2.7-39.4-2.38s25.88,32.64,26.55,32.87"/><path class="cls-13" d="M157.76,357.83A157,157,0,0,0,216.24,459"/></g><g id="Hinchado"><path class="cls-14" d="M508.66,246q-23.43-22-48.92-41.65"/><path class="cls-14" d="M609.8,200.57l-51.17-46.86"/><path class="cls-14" d="M873.44,276.06a245.71,245.71,0,0,0,50.37-52.55"/><path class="cls-14" d="M893.14,350.2a160.87,160.87,0,0,0,61.33-22.76"/><path class="cls-14" d="M738.25,183.8a245.87,245.87,0,0,0,4.64-72.65"/><path class="cls-14" d="M815.44,196.49c15.13-15.92,43.21-30.73,50.72-51.36"/></g><g id="Números"><circle class="cls-15" cx="110.66" cy="362.99" r="32.13"/><path class="cls-16" d="M97.32,361.92s8.13-21.17,14.57-20.23c10,1.45,4.45,43.11,4.45,43.11"/><circle class="cls-15" cx="358.25" cy="460.34" r="32.13"/><path class="cls-17" d="M345.14,448.58s5.69-8.41,8.72-9.53c4.4-1.62,18.71-2.58,17.43,9.53-1.06,10-21.79,34-21.79,34l21.79-3.49"/></g></svg>