<svg xmlns="http://www.w3.org/2000/svg" viewBox="0 0 1024 768"><defs><style>.cls-1,.cls-4{fill:#ccc;}.cls-12,.cls-13,.cls-15,.cls-16,.cls-17,.cls-2,.cls-6{fill:none;}.cls-10,.cls-11,.cls-12,.cls-2,.cls-3,.cls-4,.cls-5,.cls-6,.cls-7,.cls-8,.cls-9{stroke:#000;}.cls-10,.cls-11,.cls-12,.cls-14,.cls-2,.cls-3,.cls-4,.cls-5,.cls-6,.cls-7,.cls-8,.cls-9{stroke-miterlimit:10;}.cls-10,.cls-2{stroke-width:2.37px;}.cls-3{fill:#8e8e8e;}.cls-11,.cls-3,.cls-4,.cls-5,.cls-6,.cls-7{stroke-width:3px;}.cls-10,.cls-7{fill:#fff;}.cls-12,.cls-8,.cls-9{stroke-width:2.64px;}.cls-11,.cls-9{fill:#ededed;}.cls-13,.cls-15,.cls-16,.cls-17{stroke:#0071b8;stroke-linecap:round;stroke-linejoin:round;}.cls-13{stroke-width:10px;}.cls-14{fill:#d2faff;stroke:#9cdeff;stroke-width:4px;}.cls-15{stroke-width:5.04px;}.cls-16{stroke-width:4.75px;}.cls-17{stroke-width:3.94px;}</style></defs><g id="PINTAR"><path class="cls-1" d="M663.43,712.1l79.68-2.73s68.32-37.46,86-107c11.57-45.4,11.57-119.27,11.57-119.27l-58-8.83s10.82,56.95-1,108.52C767.16,646.16,663.43,712.1,663.43,712.1Z"/><path class="cls-2" d="M888.17,708l54.11,2.1a83.59,83.59,0,0,0,10.63-32.84c2.43-23.79-2.12-34,2.17-55.06a216.63,216.63,0,0,0,3.62-24.39l-36.85-5.56a255.65,255.65,0,0,1-11.2,65C901,688.19,888.17,708,888.17,708Z"/></g><g id="Dibujo"><path class="cls-3" d="M81.48,208.54c-23.68,53-16.93,126.58-5.3,183.49,12.38,60.66,16.38,95.34,34.2,142.92,38,101.39,49.9,148,157.51,159.83,101.19,11.15,303.31,3.17,334.75-22,57.52-46.12,62.82-101.84,84.57-201.43,19.54-89.49,7.46-198.68-47.53-271.95S493.21,80.13,401.75,85.26c-49.23,2.75-121,11.41-169.32,21.09C186.45,115.55,114.66,134.22,81.48,208.54Z"/><path class="cls-4" d="M132.88,437.7c3.16,18.42,10.2,47,23,74.42,2.12,4.55,10.48,20.54,24.17,42.22,31.26,49.47,74.05,109.6,209.62,111.07,79.92.87,154.63-51.94,201.29-116.84s64.06-150,46.64-228c-10.09-45.13-32.09-88.6-67.37-118.49a221.72,221.72,0,0,0-115.07-50.37c-50.91-6.24-90-7.17-122.14-4.2-14.23,1.32-34.93.95-87.33,17.7-44.41,14.18-93.35,28.16-106.18,57.51C112.74,283.85,116,339.5,132.88,437.7Z"/><path class="cls-5" d="M274.44,157c-13.93,10.33-24.6,27.65-26.46,44.89-1.07,9.87.21,19.83.22,29.76a117.07,117.07,0,0,1-3.52,28.62c-2,7.81-4.8,15.54-9.64,22-6,7.94-14.62,13.39-22.9,18.9-14.52,9.67-29.68,18.83-42,31.17-18.24,18.27-32.55,56.5-42.83,64.79l6.41,42.69c40.4-18.09,38.69-68.16,78.58-87.36,8.22-4,17.24-6,25.57-9.76,17.94-8.06,31.78-23.65,40.57-41.25s12.94-37.15,15.35-56.67c2.13-17.26,3-34.78,7.62-51.54s40.24-46.46,40.24-46.46Z"/><path class="cls-6" d="M122.11,362.54A509.56,509.56,0,0,1,256.49,161.83"/><path class="cls-7" d="M164.87,335.93c11.42-24.61,27-50.11,40.52-70.18,17.79-26.49,42.27-49.7,42.2-49.61s3.74,18.59-.62,34.87-7.41,33.71-28,45.64S164.87,335.93,164.87,335.93Z"/><path class="cls-8" d="M840.72,483.12c-.8,30.24,1.07,45.58-11.57,119.27C817.51,670.25,749.7,704,742.34,710c40.49,4.35,47.57,2.86,47.57,2.86a298.91,298.91,0,0,0,25.94-38c28.91-49.66,29.39-41.57,37.61-61.46s10.66-37.06,15.59-71.54c8.27-57.78,4.39-57.78,4.39-57.78S855.87,481.18,840.72,483.12Z"/><path class="cls-9" d="M775.81,598.85l-35.45-14a3.57,3.57,0,0,1-1.54-1c-.68-.86-.41-2.1-.07-3.14a47.61,47.61,0,0,1,4.91-10.59c12.69,4.21,25.38,8.41,38,12.69"/><path class="cls-10" d="M909.17,661.86l-23.8-11.72c-4.89-2.41-9.78-4.82-14.49-7.56a15.16,15.16,0,0,1-3.68-2.71,1.88,1.88,0,0,1-.55-.94,2.24,2.24,0,0,1,.19-1l2.6-7.13a2.91,2.91,0,0,1,.6-1.09,2.8,2.8,0,0,1,2.54-.3c14.51,3.09,11.58,2.93,25,9.2,0,0,16.5,6.23,16.44,6.2"/><line class="cls-7" x1="395.44" y1="170.07" x2="385.89" y2="642.81"/><path class="cls-7" d="M618.27,410.67,159.07,420.9c6.84,29.49,32.33,107.87,45.62,128.06,36.09,54.85,113.94,89.64,138,91.49C437.21,649.63,492,634.31,556.93,555c37.73-46.13,65.27-129.91,64.88-182.33-.22-29.6-4.3-57.81-17.43-84.33-9.69-19.56-18.59-38.55-34.28-53.74a247.59,247.59,0,0,0-79.81-51.28c-16-6.46-32.82-11.38-50.05-12.73a281.1,281.1,0,0,0-63.91,1.48c-34.29,4.68-45.79,10.28-75,20.46,0,0-1.42,22.32-7.56,54.58l187.4,374.62"/><line class="cls-7" x1="609.25" y1="299.27" x2="193.17" y2="513.36"/><line class="cls-7" x1="510.15" y1="192.28" x2="278.71" y2="614.88"/><line class="cls-7" x1="583.57" y1="513.36" x2="216.74" y2="352.83"/><path class="cls-7" d="M295.75,251s-7.35,28.26-10.88,37.31c-4.42,11.36-16.43,33.3-25.29,41.67-9.71,9.16-35.37,18.76-47.28,24.78-20.37,10.29-41.75,48.81-41.75,48.81L161,420.86l168.77-3.76s-1.38-11.46,9.35-29.44c8.69-14.58,17.71-17.32,17.71-17.32Z"/><path class="cls-11" d="M616,487.79l-26.84-13.31a91,91,0,0,1-12.89-7.3,18.06,18.06,0,0,1,1.3-12.35,274.22,274.22,0,0,0,44.28,12.89A34.32,34.32,0,0,1,616,487.79Z"/><path class="cls-12" d="M782,474.41c15.56,36.34,5.89,94-8.79,132.29S672.74,703.51,663.43,712.1"/><line class="cls-7" x1="337.76" y1="389.6" x2="191.07" y2="288"/><line class="cls-7" x1="385.89" y1="642.81" x2="385.89" y2="171.33"/><path class="cls-4" d="M460.32,429c-3.64-42.12-27.53-72.05-71.89-67.77-36,3.48-57.65,25.79-57.9,56-.26,30.75,11.12,72.9,66.13,72.57C447.2,489.41,461.21,439.27,460.32,429Z"/></g><g id="Flechas"><path class="cls-13" d="M217.45,217.44C236.08,210.85,258.8,219,269,236c5,8.28,7,17.93,9,27.38"/><path class="cls-13" d="M254.07,248.35C256.9,252.53,283,280,281.13,276c-1.91-4.12,9.24-32.26,9.63-36.78"/><path class="cls-13" d="M155,174.42c-9-23-31.76-68.65-47.65-87.61"/><path class="cls-13" d="M103.28,117.08c-1-5-4.51-30.94-.46-33.94,8.47-6.27,24.35,11.43,26.6,13.76"/><path class="cls-13" d="M761.61,539.93q44.94,14.4,89.08,31.14"/><path class="cls-13" d="M838.43,538.13c4.24,4.56,24.2,33.52,21.47,39.11s-35.81,3.24-41.91,2.33"/></g><g id="Números"><circle class="cls-14" cx="180.75" cy="99.44" r="32.13"/><path class="cls-15" d="M167.41,98.37S175.54,77.2,182,78.13c10,1.46,4.46,43.12,4.46,43.12"/><circle class="cls-14" cx="348.71" cy="259.7" r="32.13"/><path class="cls-16" d="M335.59,248s5.69-8.42,8.72-9.54c4.4-1.62,18.71-2.57,17.43,9.54-1.06,10-21.79,34-21.79,34l21.79-3.49"/><circle class="cls-14" cx="918.38" cy="532.4" r="32.13"/><path class="cls-17" d="M906.53,510.88s12.37-3.05,14.44-.09c3,4.26-7.22,19.52-7.22,19.52s12.08,1.41,14.45,4.35c4.42,5.48,3.46,15.15,0,18s-18.06,0-18.06,0"/></g></svg>