<svg xmlns="http://www.w3.org/2000/svg" viewBox="0 0 895.29 688.58"><defs><style>.cls-1,.cls-5{fill:#ccc;}.cls-2,.cls-6{fill:#fff;}.cls-3{fill:#8e8e8e;}.cls-3,.cls-4,.cls-5,.cls-6{stroke:#000;stroke-width:3px;}.cls-3,.cls-4,.cls-5,.cls-6,.cls-8,.cls-9{stroke-miterlimit:10;}.cls-10,.cls-11,.cls-4,.cls-7,.cls-8{fill:none;}.cls-10,.cls-11,.cls-7{stroke:#0071b8;stroke-linecap:round;stroke-linejoin:round;}.cls-7{stroke-width:10px;}.cls-8{stroke:#ff0;stroke-width:1.11px;}.cls-9{fill:#d2faff;stroke:#9cdeff;stroke-width:4px;}.cls-10{stroke-width:5.04px;}.cls-11{stroke-width:4.75px;}</style></defs><g id="PINTAR"><path class="cls-1" d="M227.76,208.05c-19.4-4.16-43.24-9.28-71.41.58a109.05,109.05,0,0,0-47,32.58c-21.88,26.06-24.69,54.49-25.57,65-1.27,15-1.82,54.76,27.42,89.2,3.84,4.52,35.92,41.07,88.94,41.77,0,0,60.94.81,101.44-53.68,5.61-7.55,14.61-19.94,17.88-38.21,2.93-16.4-.22-29.27-5-48.65-3.57-14.6-7.1-28.48-17.28-44A99.33,99.33,0,0,0,275.32,228C258.73,214.89,242.07,211.12,227.76,208.05Z" transform="translate(-50.49 -34.42)"/><path class="cls-2" d="M376.36,290.85c26,4.23,48.5,30,43.85,41.09-2.95,7-15.47,5-45.53,7.14-26.19,1.85-49.21,6.35-95.23,15.36-25.72,5-52.15,6.24-77.66,12.23a45.82,45.82,0,0,1-13.45.92c-5.38-.42-21.33-1.66-25.07-11.93-2.43-6.65,1.15-14.63,6.11-19.26,6.71-6.26,15.74.24,19.87-4.89,3.87-4.79,1.08-15.24-3.05-16.51-1.81-.55-2.89.95-6.42,2.45-5.83,2.46-14.66,3.32-18.35-.31-4.73-4.66-.22-16,0-16.51,6-14.6,21.1-16.14,37.3-27.21,12.37-8.45,18.35-17.72,29.66-34.85,15.86-24,22.09-46.13,26.24-61.28,28.71-105,31.22-138.63,49-142.34,9.95-2.08,22.09,5.8,25.72,14.48,4,9.64-3,18.9-11.66,35.66-12.58,24.29-19,46.76-31.79,91.72-4.56,16-3.8,15.76-8.87,33-9.45,32.18-14.13,38.11-16.82,46.47-4.56,14.21-8.4,22.32-12.84,34.55-1.29,3.57-.72,10.15,3.06,15,4.77,6.09,12.34,9.5,20,7.56,28.61-7.2,42.08-9.7,72.71-17.43C360,291.7,368.65,289.59,376.36,290.85Z" transform="translate(-50.49 -34.42)"/></g><g id="Vectores"><path class="cls-3" d="M679.45,527.3c0,28.27-7.43,55.07-11.12,74.57-4.62,24.34-27.37,52-42.49,58.86-25.57,11.67-69.27,13.8-99.45,13.8-30.7,0-82-1.93-106.77-16.25-19.58-11.34-36.53-26.95-40.47-61.66-1.7-15-5.82-53.06-5.82-69.32a153.06,153.06,0,0,1,306.12,0Z" transform="translate(-50.49 -34.42)"/><path class="cls-4" d="M272.25,225.36c28.87,24.24,33.16,40.24,43.76,76.3" transform="translate(-50.49 -34.42)"/><path class="cls-4" d="M318.56,347.89c-17.71,56.89-63.6,86-118.38,89.27C138.41,440.83,86,385.59,82.74,320.94c-2-38.83,17.45-84.47,59.59-106.3,46.21-23.93,92.15-4.69,98.54-1.88" transform="translate(-50.49 -34.42)"/><polygon class="cls-2" points="132.57 291.17 136.19 272.08 154.52 265.66 169.25 278.34 165.63 297.43 147.29 303.84 132.57 291.17"/><path d="M204.69,301.79l13.41,11.54-3.29,17.39-16.7,5.84L184.69,325l3.3-17.39,16.7-5.84m.64-3.41-20,7-3.94,20.79,16,13.8,20-7,3.94-20.79-16-13.81Z" transform="translate(-50.49 -34.42)"/><path d="M196.1,175.35a8.37,8.37,0,1,1-8.36,8.37,8.39,8.39,0,0,1,8.36-8.37m0-3a11.37,11.37,0,1,0,11.37,11.37,11.37,11.37,0,0,0-11.37-11.37Z" transform="translate(-50.49 -34.42)"/><path d="M140.38,190.68A8.37,8.37,0,1,1,132,199a8.37,8.37,0,0,1,8.37-8.36m0-3A11.37,11.37,0,1,0,151.74,199a11.37,11.37,0,0,0-11.36-11.36Z" transform="translate(-50.49 -34.42)"/><path d="M93.41,228a8.37,8.37,0,1,1-8.36,8.37A8.37,8.37,0,0,1,93.41,228m0-3a11.37,11.37,0,1,0,11.36,11.37A11.36,11.36,0,0,0,93.41,225Z" transform="translate(-50.49 -34.42)"/><path d="M71.38,277.25A8.36,8.36,0,1,1,63,285.61a8.37,8.37,0,0,1,8.37-8.36m0-3a11.36,11.36,0,1,0,11.36,11.36,11.36,11.36,0,0,0-11.36-11.36Z" transform="translate(-50.49 -34.42)"/><path d="M69.34,329.84A8.37,8.37,0,1,1,61,338.21a8.37,8.37,0,0,1,8.37-8.37m0-3A11.37,11.37,0,1,0,80.7,338.21a11.37,11.37,0,0,0-11.36-11.37Z" transform="translate(-50.49 -34.42)"/><path d="M83.75,372.85a8.37,8.37,0,1,1-8.36,8.36,8.37,8.37,0,0,1,8.36-8.36m0-3a11.37,11.37,0,1,0,11.37,11.36,11.37,11.37,0,0,0-11.37-11.36Z" transform="translate(-50.49 -34.42)"/><path d="M110.05,408.27a8.37,8.37,0,1,1-8.36,8.36,8.37,8.37,0,0,1,8.36-8.36m0-3a11.37,11.37,0,1,0,11.36,11.36,11.36,11.36,0,0,0-11.36-11.36Z" transform="translate(-50.49 -34.42)"/><path d="M153.6,435.58a8.37,8.37,0,1,1-8.36,8.36,8.37,8.37,0,0,1,8.36-8.36m0-3A11.37,11.37,0,1,0,165,443.94a11.36,11.36,0,0,0-11.36-11.36Z" transform="translate(-50.49 -34.42)"/><path d="M213.35,443.34A8.37,8.37,0,1,1,205,451.7a8.37,8.37,0,0,1,8.37-8.36m0-3a11.37,11.37,0,1,0,11.36,11.36,11.37,11.37,0,0,0-11.36-11.36Z" transform="translate(-50.49 -34.42)"/><path d="M265.66,428a8.37,8.37,0,1,1-8.36,8.37,8.38,8.38,0,0,1,8.36-8.37m0-3A11.37,11.37,0,1,0,277,436.41,11.37,11.37,0,0,0,265.66,425Z" transform="translate(-50.49 -34.42)"/><path d="M308.3,390.75a8.37,8.37,0,1,1-8.37,8.36,8.37,8.37,0,0,1,8.37-8.36m0-3a11.37,11.37,0,1,0,11.36,11.36,11.37,11.37,0,0,0-11.36-11.36Z" transform="translate(-50.49 -34.42)"/><path class="cls-4" d="M343.36,343.05c.64,6.25-1.09,11.59-7.14,13.23s-11.27-2.1-11.91-8.35" transform="translate(-50.49 -34.42)"/><path d="M326.52,273a8.37,8.37,0,1,1-8.37,8.37,8.38,8.38,0,0,1,8.37-8.37m0-3a11.37,11.37,0,1,0,11.36,11.37A11.37,11.37,0,0,0,326.52,270Z" transform="translate(-50.49 -34.42)"/><path d="M299,218.83a8.37,8.37,0,1,1-8.36,8.37,8.37,8.37,0,0,1,8.36-8.37m0-3a11.37,11.37,0,1,0,11.37,11.37A11.37,11.37,0,0,0,299,215.83Z" transform="translate(-50.49 -34.42)"/><circle class="cls-2" cx="475.9" cy="492.88" r="124.85"/><path d="M526.39,404a123.34,123.34,0,1,1-87.23,36.13A122.53,122.53,0,0,1,526.39,404m0-3A126.35,126.35,0,1,0,652.74,527.3,126.35,126.35,0,0,0,526.39,401Z" transform="translate(-50.49 -34.42)"/><path d="M765.32,504.24a50,50,0,1,1-50,50,50,50,0,0,1,50-50m0-3a53,53,0,1,0,53,53,53,53,0,0,0-53-53Z" transform="translate(-50.49 -34.42)"/><path d="M201.4,309.19a10,10,0,1,1-10,10,10,10,0,0,1,10-10m0-3a13,13,0,1,0,13,13,13,13,0,0,0-13-13Z" transform="translate(-50.49 -34.42)"/></g><g id="Rectas"><line class="cls-4" x1="372.07" y1="420.86" x2="570.16" y2="572.75"/><line class="cls-4" x1="557.94" y1="396.79" x2="406.84" y2="598.7"/><line class="cls-4" x1="428.32" y1="380.86" x2="524.66" y2="609.48"/><line class="cls-4" x1="489.96" y1="369.5" x2="470.66" y2="615.46"/><line class="cls-4" x1="586.92" y1="441.87" x2="372.07" y2="562.2"/><line class="cls-4" x1="598.29" y1="512.75" x2="351.72" y2="486.37"/></g><g id="Dibujo"><path class="cls-4" d="M-38.59,254.76" transform="translate(-50.49 -34.42)"/><path class="cls-4" d="M302.21,34.84q-24.72,84.36-56.73,166.33c-5.11,13.07-10.36,26.12-16.95,38.51-5.64,10.57-12.4,20.82-21.78,28.28-13.14,10.46-30.77,14.94-42,27.4-5.53,6.11-8.74,16.53-2.6,22,5.89,5.27,15.11,1.7,22.19-1.93a8.78,8.78,0,0,0,.94-.54" transform="translate(-50.49 -34.42)"/><path class="cls-4" d="M191.35,331.7a52.68,52.68,0,0,0-19.52,4.69c-5.54,2.56-10.1,8.3-9.28,14.34s6.38,10.16,11.95,12.5a46,46,0,0,0,15.63,3.55c6.22.3,12.42-.67,18.57-1.64L326.17,346.7l94-14.76" transform="translate(-50.49 -34.42)"/><path class="cls-4" d="M329.32,49.43,287,178.59c-11.34,34.63-22.69,69.27-35.67,103.32-2.13,5.59-4.35,11.5-3.38,17.41a17.28,17.28,0,0,0,14.71,14c4.48.5,8.91-.92,13.27-2.06,33.39-8.76,76.51-17.48,99.62-21.24H375" transform="translate(-50.49 -34.42)"/><path class="cls-4" d="M206.73,204.14c3.75-3.6,9.14-8.25,9.87-14.61,1-8.29-2.68-17.46-9.75-21.91a21.46,21.46,0,0,0-23.56.89c-3,2.24-5.39,5.24-8.34,7.57-6.11,4.82-14.28,6.34-22,5.93-5.66-.3-11-1.75-16.76-.83-4.07.66-9.88,4.68-11.9,8.28-3.93,7-4.3,14.13.9,20.95,4.61,6,4.87,6.45,9.38,8" transform="translate(-50.49 -34.42)"/><path class="cls-4" d="M114.93,236.37A47.21,47.21,0,0,0,109.08,226a16.54,16.54,0,0,0-10.48-6.41c-4.8-.67-13.62-.75-18.26,3-3.76,3.07-5.49,9.38-5.26,14.22.39,8,3.26,15.87,1.86,20.8C74,267.92,59,269.48,55.67,277.9c-3.86,9.73.6,17.8,4.57,22.58s17.47,6.91,23.58,5.71" transform="translate(-50.49 -34.42)"/><path class="cls-4" d="M82.94,324.86c-3.3-3.05-6.39-4-13-3.91a27,27,0,0,0-9.23,2.94c-3.87,2.42-9.63,9-8.55,17.32a23.74,23.74,0,0,0,6.19,12.91c3,3.14,7.26,4.63,9,8.81,2.35,5.52.81,10.28.36,16.27a20.24,20.24,0,0,0,4,13.57,15.24,15.24,0,0,0,5.17,4.48,17.79,17.79,0,0,0,9,1.52,19.55,19.55,0,0,0,6.86-1.42c4.78-2.08,9.23-8,9.68-13.18" transform="translate(-50.49 -34.42)"/><path class="cls-4" d="M114.08,398.81c-5.16-1-7.13-.32-12.17,2.17-3.8,1.88-6.24,5.09-8.25,8.82-1.73,3.19-1.65,7.12-.6,10.59a21.15,21.15,0,0,0,14.87,14.11c3.77.93,13.36-1.43,17.09-.37,8.08,2.28,7.68,12,12.37,19s9.74,9,17.55,8.56c8.49-.5,12.83-5.8,14.92-11.62,1.25-3.48,3-7.71.92-16.23" transform="translate(-50.49 -34.42)"/><path class="cls-4" d="M200.18,437.16c-2.93,4.49-4.24,8.94-3.72,13.85s2.41,11.93,6.41,14.81c4.71,3.4,12,3.63,15.92,2.47s11.18-8.88,17.7-13.37c4.17-2.87,7.61-3.4,12.62-2.7,6.77.94,14.94,4,21.32,1.54s12.76-8.49,13.22-15.3c.27-4.08-3.09-10.86-6.07-13.65s-8-5.72-11.88-6.26" transform="translate(-50.49 -34.42)"/><path class="cls-4" d="M285.29,402.89c3.11,5.76,9.61,11.19,16,12.64,4.21,1,11.07,3.06,16.46-.65,5.56-3.83,8-10.22,7.89-19.17s-.18-15.31,3.47-19.95c5.73-7.26,22.73-7.42,22.73-32.16" transform="translate(-50.49 -34.42)"/><path class="cls-4" d="M347,295.21c1.88-7.7-1-21.19-10.58-28.91-6.31-5.11-12.55-1.55-17.81-13-2.5-5.44-.71-11-.51-18.94.24-9.38-3.53-21.45-12.91-24.51-7.11-2.31-13.56-1.36-19.33,4.18a29.18,29.18,0,0,0-8.42,14.38" transform="translate(-50.49 -34.42)"/><path class="cls-4" d="M291.61,211.56c-5.64-4.79-8.64-7.38-10.54-14.85" transform="translate(-50.49 -34.42)"/><path class="cls-4" d="M214.15,175.68a12.21,12.21,0,0,0,5.39,4A61.85,61.85,0,0,0,236.77,183c4,.19,8.86.15,12.29-1.93,2.44-1.49,4.23-3.63,6.19-5.35" transform="translate(-50.49 -34.42)"/><path class="cls-4" d="M121.35,201.21c-2,3.3-6.29,9.65-9.49,11.83-5.4,3.68-7.19,4.15-13.26,6.54" transform="translate(-50.49 -34.42)"/><path class="cls-4" d="M63.52,303c1.43,4.32,2.47,6.46,2,10.39-.3,2.79-3.22,7.82-5.87,11.22" transform="translate(-50.49 -34.42)"/><path class="cls-4" d="M73.24,394.43c3.77,5.24,10.78,7.38,14.5,12.66a28.24,28.24,0,0,1,2.31,4.26,35.54,35.54,0,0,1,2.26,5.28" transform="translate(-50.49 -34.42)"/><path class="cls-4" d="M167.54,454c4.87-2.14,11.85-1.61,14.61-.81a110.92,110.92,0,0,1,16.38,6.44" transform="translate(-50.49 -34.42)"/><path class="cls-4" d="M282.68,434.64a33.61,33.61,0,0,1,9.69-12,32,32,0,0,1,13.16-6.35" transform="translate(-50.49 -34.42)"/><path class="cls-4" d="M942,281.94c-13.8,13.19-18.38,16.69-32.47,29.57C889.9,329.4,866.22,343,840.56,349.65c-15.8,4.12-32.13,5.62-48.27,8.07a418.5,418.5,0,0,0-81.62,21l.27-.09" transform="translate(-50.49 -34.42)"/><path class="cls-4" d="M718,403.47c34.21-10.37,69.82-15.24,104.63-23.39s69.62-20,97.6-42.28" transform="translate(-50.49 -34.42)"/><path class="cls-4" d="M944.71,359.09c-72.78,73.68-67.28,86.38-138.3,161.7" transform="translate(-50.49 -34.42)"/><path class="cls-4" d="M935.36,322.1c-53.77,54.69-115.33,123-164.2,182.06" transform="translate(-50.49 -34.42)"/><path class="cls-4" d="M736.28,510.13c-21.43-49.57-49.4-112.19-54.79-148.31-1.2-8,16.74-13,20.15-4.86,10.78,25.88,35,99.1,54.53,148.69" transform="translate(-50.49 -34.42)"/><path class="cls-4" d="M663.8,259.19c10.91,37.2,19.69,60.34,30.26,93.59" transform="translate(-50.49 -34.42)"/><path class="cls-4" d="M683.49,355.24c-12.91-44.09-16.89-45.35-30.33-94.09" transform="translate(-50.49 -34.42)"/><path class="cls-4" d="M713,230.25c-9.1-2.24-18.67-1.34-27.94.12-19.91,3.13-40,8.79-59.91,5.58-3.47-.55-6.95-1.38-10.46-1.08a16.63,16.63,0,0,0-13.18,8.91c-1.64,3.23-2.15,6.91-2.45,10.53a105.19,105.19,0,0,0-.3,12.3,24.9,24.9,0,0,0,1.62,9.15c1.24,2.86,3.64,5.37,6.69,6,5,1.05,9.52-3,13.49-6.3,14.75-12.19,34.5-16.7,53.63-17.34,12.81-.43,26.16.6,37.94-4.45,5.76-2.47,13.44-7.32,11.76-13.37C721.79,232.65,717.68,231.4,713,230.25Z" transform="translate(-50.49 -34.42)"/><path class="cls-4" d="M542.85,533.18a12,12,0,0,0-8.59-5.26,12.33,12.33,0,0,0-11.69,6.42,13.12,13.12,0,0,0,.91,13.4,12.19,12.19,0,0,0,15.07,3.4C545.18,547.84,546.74,539.22,542.85,533.18Z" transform="translate(-50.49 -34.42)"/><path class="cls-4" d="M536.56,545.73c1.68-2,2.56-4.91,1.58-7.34a5.54,5.54,0,0,0-10.43.43,8,8,0,0,0-.18,3.52,6,6,0,0,0,.78,2.44,5,5,0,0,0,3.91,2.12C533.76,547,535.58,546.92,536.56,545.73Z" transform="translate(-50.49 -34.42)"/><path class="cls-5" d="M582.72,543.77a93.45,93.45,0,0,0-3.19-24.45A64.28,64.28,0,0,0,571,499.77c-11.81-17.36-34.52-25.94-55.33-23.09-13.79,1.88-23.19,9.8-33.63,26.91-7.72,12.66-8.9,27.7-6.83,42.39s9.66,28.89,21.91,37.26c6.87,4.69,14.91,7.43,23,9.15,5.24,1.11,10.66,1.83,16,1.05,8-1.18,15.1-5.65,21.17-10.94C568.78,572.47,582.68,560,582.72,543.77Z" transform="translate(-50.49 -34.42)"/><path class="cls-6" d="M819,560.79a471.35,471.35,0,0,0-55.72,9.8c-1.56.37-3.24.74-4.71.12a5.11,5.11,0,0,1-2.77-4.34,15.16,15.16,0,0,1,.81-5.32c.86-3.08,1.88-6.4,4.46-8.31,2.23-1.65,5.18-1.89,8-2.07,25.45-1.62,68.63-8.17,76.52-7.28,4.16.47,4.68,3.67,4.83,6,.12,2,0,5.78-.58,6.54-1.4,1.75-4.4,2-6.68,2.27" transform="translate(-50.49 -34.42)"/><path class="cls-4" d="M821.25,581a8.23,8.23,0,0,0,1.08,3.41,7,7,0,0,0,3.09,2.31c6.15,2.71,13.33,1.42,19.62-.92,3.23-1.2,6.71-3,7.62-6.38.8-2.92-.7-5.94-2.2-8.58q-4.63-8.09-10-15.72a4.55,4.55,0,0,0-2.29-2,4.46,4.46,0,0,0-2,.07l-10,1.88a8.57,8.57,0,0,0-3.95,1.46c-2.27,1.9-1.73,5.19-1.39,8.32C821.08,565.86,820.43,575.52,821.25,581Z" transform="translate(-50.49 -34.42)"/><path class="cls-6" d="M712.75,560.7c-58.44,1.21-158.23,5.62-162.87,5.42-5.67-.24-24.33.4-32.32-6.61C512.45,555,509.64,545.69,511,539s4.94-9.79,9.72-14.63c17.65-17.87,147.4-122,166.39-138.41l8.42,25.48C659.4,442,624,468.73,587.89,499.27c-10.34,8.74-20.71,17.51-30,27.39-2.61,2.79-5.86,6.17-5.1,9.92,1.7,8.38,17.71,8.24,22.17,8.1,17.38-.58,110.77-5.13,139.74-4.42Z" transform="translate(-50.49 -34.42)"/><circle class="cls-6" cx="483.88" cy="510.02" r="7.99"/></g><g id="Flechas"><path class="cls-7" d="M580.06,700.23c-38.39,25.39-90,20.92-132.54,3.26s-79.09-46.76-118.17-70.75" transform="translate(-50.49 -34.42)"/><path class="cls-7" d="M345.63,665.66a288.37,288.37,0,0,0-32.31-39.31,503.49,503.49,0,0,0,54.16,7" transform="translate(-50.49 -34.42)"/><path class="cls-7" d="M228.22,339.52c10.39-17,5.56-41.64-10.49-53.48A30.5,30.5,0,0,0,205,280.28c-8.76-1.53-17.68,1.79-25.3,6.36a44.75,44.75,0,0,0-12.82,10.83c-6.35,8.3-8.12,19.5-6.39,29.82s-3.59,29.38,32.45,46.86c8.17,4,17.77,4,26.68,2.31,18.45-3.55,35.59-16,42.23-33.61,3.35-8.9,4-18.64,3.25-28.12-1.46-19.33-8.57-38.42-21.29-53.05s-31.19-24.49-50.56-25.44a56.85,56.85,0,0,0-26.11,4.68c-12.25,5.55-21.78,15.87-29.07,27.17-8.76,13.57-14.79,29.1-16,45.21s2.75,32.79,12.22,45.87C145.67,374.91,162,392.86,180.69,398c18.09,4.91,52.51,3.94,67-7.89" transform="translate(-50.49 -34.42)"/><path class="cls-7" d="M224.72,388.74c5-1.64,29.16-3.08,29.45-2.71s-13.67,26.63-14.43,26.9" transform="translate(-50.49 -34.42)"/></g><g id="Hinchado"><path class="cls-8" d="M1800.92,1862.32" transform="translate(-50.49 -34.42)"/></g><g id="Números"><circle class="cls-9" cx="51.88" cy="164.62" r="32.13"/><path class="cls-10" d="M89,198s8.13-21.17,14.57-20.24c10,1.46,4.45,43.12,4.45,43.12" transform="translate(-50.49 -34.42)"/><circle class="cls-9" cx="570.55" cy="631.24" r="32.13"/><path class="cls-11" d="M607.92,653.9s5.69-8.41,8.72-9.53c4.4-1.62,18.71-2.58,17.43,9.53-1.06,10-21.79,34-21.79,34l21.79-3.48" transform="translate(-50.49 -34.42)"/></g></svg>