<svg xmlns="http://www.w3.org/2000/svg" viewBox="0 0 1024 768"><defs><style>.cls-1{fill:#8e8e8e;}.cls-2,.cls-5{fill:#ccc;}.cls-10,.cls-3,.cls-6,.cls-8,.cls-9{fill:none;}.cls-3,.cls-4,.cls-5{stroke:#000;stroke-width:3px;}.cls-3,.cls-4,.cls-5,.cls-7{stroke-miterlimit:10;}.cls-4{fill:#ffdcdc;}.cls-10,.cls-6,.cls-8,.cls-9{stroke:#0071b8;stroke-linecap:round;stroke-linejoin:round;}.cls-6{stroke-width:10px;}.cls-7{fill:#d2faff;stroke:#9cdeff;stroke-width:4px;}.cls-8{stroke-width:5.04px;}.cls-9{stroke-width:4.75px;}.cls-10{stroke-width:3.94px;}</style></defs><g id="PINTAR"><path class="cls-1" d="M77,736.3,211.12,519.89S321.23,386.76,353.74,360.36c36.82-29.9,92.87-74.21,123.18-86.84,56.86-23.68,91-38.32,124.08-42.11s81.6-6.59,122.48-1.23c40.63,5.33,91,24,142.62,40.06C927.68,289.43,994,327.84,994,327.84V186.33S864,125.27,748.25,98.84c-104.88-24-178.44-17.64-292,23-102.53,36.73-114.43,43.48-187.85,99.06C175.58,291.21,176.66,321.64,138,362.88S39.22,517.2,39.22,517.2l-4.13,134,1.83,85.07Z"/><path class="cls-2" d="M140.85,736.3c28.83-52.87,105.66-178,138.93-227.61,19.6-29.23,85.87-94.93,85.87-94.93s64.15-55.16,88.57-69c36.4-20.62,99.65-50,156.07-60.36,16-2.95,27.75-7.1,64.45-8.11s103,11.72,146.43,30.91C864,326.13,994,385.62,994,385.62V327.84s-98.44-54.42-176.29-74.65c-49-12.72-79.6-20.74-120.86-25.21-71.67-7.78-137,8.24-198.55,36.86-49.39,23-53.57,19.71-113.13,68.69-81.48,67-122.9,117.84-127.61,123.56s-72.43,95.48-91.25,130.65S77,736.3,77,736.3Z"/></g><g id="Rectas"><line class="cls-3" x1="377.66" y1="435.85" x2="576.29" y2="623.82"/><line class="cls-3" x1="689.61" y1="300.08" x2="679.68" y2="603.98"/></g><g id="Dibujo"><path class="cls-3" d="M35.09,651.23C104.42,550.81,211.89,372,307.22,291S523.49,154,648.61,155.2c109.08,1.08,249.15,48.85,345.4,100.2"/><path class="cls-3" d="M39.22,517.2C105.64,410.23,161.39,311.44,257.4,230S492.92,94.57,625,84.87c127.6-9.38,337.53,82.31,369,101.46"/><path class="cls-3" d="M220,599.54l21.84,7.57a2.91,2.91,0,0,0,2.06.18,2.88,2.88,0,0,0,1.19-1.27l3.9-6.34a3.36,3.36,0,0,0,.72-2.24,3.44,3.44,0,0,0-1.65-2q-9-6.33-18.05-12.68"/><path class="cls-3" d="M353.74,423.67a147.51,147.51,0,0,0,17.45,12.42,4.78,4.78,0,0,0,6.47-.24c2.59-1.67,5.52-4.07,5-7.1a7.78,7.78,0,0,0-1.52-3c-3.84-5.52-7.69-11-11.18-16.81l-.93.47"/><path class="cls-3" d="M683.14,278.77a127.51,127.51,0,0,0-.73,18.23,3.46,3.46,0,0,0,.62,2.24,3.25,3.25,0,0,0,2.33.8,25,25,0,0,0,6-.36,6.16,6.16,0,0,0,4-1.91,7.07,7.07,0,0,0,1.05-4.08c.22-5,.56-14.87.51-14.77"/><path class="cls-3" d="M531.86,307.49a125.43,125.43,0,0,0,6.5,17.05,3.39,3.39,0,0,0,1.45,1.82,3.28,3.28,0,0,0,2.45-.17,26.11,26.11,0,0,0,5.36-2.69,6.17,6.17,0,0,0,2.89-3.31,7,7,0,0,0-.64-4.17c-1.77-4.71-4.17-11.07-5.33-13.77"/><path class="cls-3" d="M855.82,323.94c-2.44,5.29-4.92,10.69-5.65,16.48a5.27,5.27,0,0,0,.56,3.76,5.65,5.65,0,0,0,1.76,1.42l3.71,2.27a8,8,0,0,0,2.87,1.26,5.31,5.31,0,0,0,4.23-1.51,14.43,14.43,0,0,0,2.71-3.75c2.46-4.33,4.69-8.79,6.74-13.31"/><line class="cls-3" x1="246.51" y1="603.74" x2="552.42" y2="705.93"/><line class="cls-3" x1="638.38" y1="604.56" x2="546.37" y2="324.69"/><path class="cls-4" d="M573.61,497A142.86,142.86,0,0,1,591.31,529c2.74,6.94,2.77,14.18,6.77,20.48s10.21,11.72,17.63,12.61a25.7,25.7,0,0,0,12.07-1.86c4.35-1.64,8.61-4.15,11-8.13,2.06-3.37,3.47-6.43,2.4-15.64-1.53-13.18-12.71-20.3-20.24-31.22a307.07,307.07,0,0,1-18.77-31c-3.31-6.29-3.12-12.73-5.14-19.54-1.64-5.54-2.56-11.32-5-16.57-5.45-11.91-17.78-19.35-30.37-23-6.8-2-15.19-2.59-19.94,2.66a17.8,17.8,0,0,0-3.7,8.23c-2.22,9.92-1.27,20.33,1.19,30.19,1.32,5.28,3.1,10.52,6.15,15,6.81,10.08,21.38,15.45,28.12,25.6C573.58,496.93,573.62,497,573.61,497Z"/><path class="cls-3" d="M140.85,736.3c64-121.73,160-284.27,279-368.7,97.45-69.1,221.57-107.82,338-80.94C817,300.32,940.62,358.69,994,387.58"/><path class="cls-4" d="M444.2,290.31c1.32,5.28,4.51,14.36,7.55,18.87,6.82,10.08,21.39,15.45,28.12,25.59,0,0,.08.07.06.07a143.08,143.08,0,0,1,17.7,32.06c2.74,7,2.77,14.18,6.78,20.49S514.62,399.1,522,400a25.83,25.83,0,0,0,12.07-1.86c4.36-1.64,8.61-4.15,11-8.13,2.05-3.38,3.47-6.43,2.4-15.65-1.53-13.17-12.72-20.3-20.25-31.21a305.3,305.3,0,0,1-18.76-31c-3.32-6.28-5.32-12.43-5.14-19.54s-.16-16.54-9.25-27.31"/><path class="cls-4" d="M480.22,271.9c6,.77,18.3,2,24.45,1.17,13.85-1.83,27.86-7.23,41.83-6.72,0,0,.11,0,.1,0a164,164,0,0,1,41.74,4.95c8.31,2.09,16.1,4.75,24.66,5.23s17.8,1.31,22.52-5.84c1.08-1.64,3.12-9,1-13.95-1.78-4.18-3.11-8.74-13-12.71-9.31-3.74-24.93-3.33-40-1.47s-11.85,2.34-23.91-.34"/><path class="cls-3" d="M77,736.3c26.34-52.09,119.8-198,154.68-244.79,53.62-72,110.85-128.52,183.69-180.92S580.22,226.52,670,227.12c99.62.66,238.61,49.5,324,100.72"/><path class="cls-5" d="M753.25,736.3c3.44-14.22,4.66-20.21,5.16-26.77,5.19-68.37-44.64-116.86-116.58-109.92-58.42,5.64-93.51,41.82-93.92,90.75a167,167,0,0,0,5.68,45.94"/><line class="cls-3" x1="854.56" y1="346.87" x2="731.56" y2="628.83"/><line class="cls-3" x1="758.78" y1="672.1" x2="994.01" y2="468.48"/><line class="cls-3" x1="758.41" y1="709.53" x2="994.01" y2="697.78"/></g><g id="Flechas"><path class="cls-6" d="M561.26,363.86c18.47-25.39,30.53-100.37,30.52-100.66"/><path class="cls-6" d="M567.43,289.43c5.13-7.27,15.51-27.2,24.35-26.23,8.45.93,14.53,27.57,14.72,36.07"/><path class="cls-6" d="M554.64,332.71c-.63,7.63,3.45,32.13.36,39.13-.4.91-.65,2.28.28,2.62a1.68,1.68,0,0,0,.89,0c4.9-.93,8.6-4.87,13.06-7.1,3-1.49,19.88-13.84,23.15-14.54"/><path class="cls-6" d="M657.36,519c-10.93-37.64-36-86.28-58.61-118.26"/><path class="cls-6" d="M599.74,435.85c0-9.1-9.23-31.28-1-35.14,9.85-4.61,25.88,12.09,33.18,20.15"/><path class="cls-6" d="M391.52,289.36c-46.37,32.05-87.11,71.45-127.6,110.66-22.4,21.68-44.82,43.39-65.14,67-29.29,34.06-53.94,78.13-78.5,115.74"/><path class="cls-6" d="M169.46,553c-9.93,5.31-45.65,40.93-56,36.47-4.61-2,7.45-63.85,8.8-68.65"/></g><g id="Números"><circle class="cls-7" cx="703.31" cy="532.17" r="32.13"/><path class="cls-8" d="M690,531.1s8.12-21.17,14.56-20.24C714.56,512.31,709,554,709,554"/><circle class="cls-7" cx="653.34" cy="281.94" r="32.13"/><path class="cls-9" d="M640.23,270.18s5.68-8.41,8.71-9.53c4.41-1.62,18.71-2.58,17.44,9.53-1.06,10-21.79,34-21.79,34l21.79-3.49"/><circle class="cls-7" cx="353.74" cy="247.73" r="32.13"/><path class="cls-10" d="M341.89,226.21s12.37-3.05,14.44-.09c3,4.26-7.22,19.52-7.22,19.52s12.07,1.41,14.44,4.35c4.43,5.48,3.47,15.15,0,18s-18.05,0-18.05,0"/></g></svg>