<svg xmlns="http://www.w3.org/2000/svg" viewBox="0 0 1024 768"><defs><style>.cls-1{fill:#8e8e8e;}.cls-2,.cls-6{fill:#fff;}.cls-3{fill:#ededed;}.cls-3,.cls-4,.cls-5,.cls-6,.cls-7{stroke:#000;stroke-width:3px;}.cls-10,.cls-3,.cls-4,.cls-5,.cls-6,.cls-7,.cls-9{stroke-miterlimit:10;}.cls-11,.cls-12,.cls-13,.cls-14,.cls-4,.cls-8,.cls-9{fill:none;}.cls-5{fill:#ccc;}.cls-7{fill:#ffdcdc;}.cls-11,.cls-12,.cls-13,.cls-14,.cls-8{stroke:#0071b8;stroke-linejoin:round;}.cls-11,.cls-12,.cls-13,.cls-14,.cls-8,.cls-9{stroke-linecap:round;}.cls-8,.cls-9{stroke-width:10px;}.cls-9{stroke:#ffdcdc;}.cls-10{fill:#d2faff;stroke:#9cdeff;stroke-width:4px;}.cls-11{stroke-width:5.04px;}.cls-12{stroke-width:4.75px;}.cls-13{stroke-width:3.94px;}.cls-14{stroke-width:3.42px;}</style></defs><g id="PINTAR"><path class="cls-1" d="M80.8,573.72l27.11-14,9.4-12s23.1-52.54,29.34-103.73c3.59-29.47,15.43-117.75,15.43-117.75L165.23,289l-1-43.61s1.53-39.39,7.15-59.78c3.27-11.88,1.43-18.43,23.13-43.5s40.88-23.56,73.66-25.65,64.39,3.63,87.76,10.05,67,16.66,91.72,17.12,91.31,4.16,115.7-2.83,51.21-17.93,51.21-17.93L599.74,90,574.33,67.22s8.37-.65-29.72,1.21S485.4,63.4,460.3,60s-84.64-8.7-103.82-13.9-87-8.33-96.44-10S225.55,36,204.79,46.48s-37.32,18.38-60.86,45.17-37.06,67.8-44.06,92.7-6.84,97-5.54,120.59.52,64.77-3.61,85.08-12.1,46.07-13.45,77.79S80.8,573.72,80.8,573.72Z"/><path d="M177.05,547.79s14.72-30.51,19.23-64.79c2.63-20,3.52-37.37,4.13-66,1.29-61.6-1.29-55.09.53-69.28,7-54.53,37.54-92,45.56-101.33,10.91-12.71,27.93-41.51,62-47.2,31.86-5.32,43.76-8.65,82.91-7.18,53.74,2,55.15,2.46,96.3,9.16,27,4.4,44-2.35,84.69-16.21,21.42-7.3,41.87-21.67,41.87-21.67l.29-40.39s-16,5.89-33.84,14.1c-8.36,3.85-22.36,9-83.85,8.4-22.82-.22-28.36-1-73.38-3.11-69.72-3.26-80.88-2.53-90.28-1.57-22.14,2.27-46.05,4.93-73.76,18.38-10.48,5.08-29.19,14.38-47,33.56-4.66,5-19.18,21.38-32.87,57.41-6.59,17.34-11.42,35.1-18.58,83.36-7.66,51.55-7,64.26-15.57,118.46-8,50.95-12.05,61.94-18.66,73.15a105.81,105.81,0,0,0-9.47,22.75Z"/></g><g id="Vectores"><path class="cls-1" d="M685,697.27a233.5,233.5,0,0,1-26.12-1.48,229.45,229.45,0,0,1,25.55-457.43,231.14,231.14,0,0,1,26.12,1.48A229.45,229.45,0,0,1,685,697.27Z"/><path d="M684.44,236.86v3a230.33,230.33,0,0,1,25.95,1.47A227.95,227.95,0,0,1,685,695.77a230.33,230.33,0,0,1-26-1.47,227.95,227.95,0,0,1,25.38-454.44v-3m0,0c-115.9,0-215.82,87.05-229.18,205C440.9,568.54,532,682.92,658.72,697.28A233.79,233.79,0,0,0,685,698.77c115.9,0,215.82-87.06,229.18-204.95,14.36-126.74-76.73-241.11-203.46-255.47a231.46,231.46,0,0,0-26.29-1.49Z"/><path class="cls-2" d="M685,657a191.83,191.83,0,0,1-21.53-1.22,189.15,189.15,0,0,1,21.06-377.09A191.83,191.83,0,0,1,706,279.88c103.63,11.74,178.39,105.6,166.65,209.23A188.9,188.9,0,0,1,685,657Z"/><path d="M684.49,277.16v3a188.81,188.81,0,0,1,21.36,1.21A187.65,187.65,0,0,1,685,655.47a188.81,188.81,0,0,1-21.36-1.21,187.65,187.65,0,0,1,20.89-374.1v-3m0,0c-95.68,0-178.17,71.86-189.19,169.19-11.86,104.62,63.34,199,168,210.89a191.74,191.74,0,0,0,21.7,1.23c95.68,0,178.17-71.86,189.2-169.19,11.85-104.62-63.35-199-168-210.9a191.71,191.71,0,0,0-21.7-1.22Z"/><path class="cls-3" d="M660.39,281l6.8,18.64s15.44-3.77,15.1-3.76-3.79-16.48-3.79-16.48Z"/></g><g id="Rectas"><line class="cls-4" x1="541.29" y1="342.21" x2="812.47" y2="603.58"/><line class="cls-4" x1="824.05" y1="337.7" x2="563.21" y2="614.74"/><line class="cls-4" x1="630.92" y1="287.2" x2="736.52" y2="646.32"/><line class="cls-4" x1="727.01" y1="284.02" x2="656.04" y2="650.7"/><line class="cls-4" x1="859.83" y1="410.2" x2="517.28" y2="554.1"/><line class="cls-4" x1="864.84" y1="518.4" x2="499.65" y2="436.96"/></g><g id="Dibujo"><path class="cls-4" d="M177.05,546.39c17.4-37.11,23.17-78.75,23.39-119.74.21-39.77-4.44-80.68,8-118.45,7.6-23,21.23-43.61,36.12-62.76,9.75-12.55,20.31-24.81,33.66-33.44,18.29-11.83,40.45-16,62.13-18.13a406.46,406.46,0,0,1,79.61-.11c34.4,3.33,69,11,103.17,6.16,32.61-4.65,62.46-20.42,91.13-36.63"/><path class="cls-4" d="M117.31,547.79C155.39,466.6,150,372.41,169.73,284.94c7.33-32.44,18.7-65,40.64-90,31-35.32,79.29-51,126.15-54.53s93.79,3.41,140.73,5.53,95.82-1.06,137.34-23.08"/><path class="cls-4" d="M162.08,324.81c4.42-24.51,3.12-40.95,2.44-65.85s-.65-50.21,6.27-74.13,21.68-46.61,43.93-57.79c11.09-5.58,23.48-8.07,35.82-9.38,63.86-6.8,125.57,15.6,189,25.87"/><path class="cls-4" d="M574.33,67.22c-33.94,3.5-68.13-1-102-5.56l-152-20.35c-31.73-4.25-64.28-8.46-95.47-1.24C177.59,51,139,88,117.83,131.74S91.09,225.32,92.72,273.88c1,30.14,4.66,60.34,1.79,90.36-2.49,26.13-9.87,51.53-14.06,77.44-7,43.6-5,88.21.35,132"/><path class="cls-4" d="M107.91,559.77c-1.87-42.42-3.31-85,1.1-127.26,5.52-52.87,20.16-104.81,20.87-158,.66-49.88-9.92-104.36,17.17-146.25,25.42-39.29,77-53.72,123.77-51.23s91.59,18.48,137.71,26.41A403.73,403.73,0,0,0,599.74,90"/><path class="cls-5" d="M389.83,191.6c-19,3.85-36.33,13.66-52.6,24.25C282.45,251.52,230.55,302.17,200.07,360L200,393.14,427.14,194.23Z"/><path class="cls-5" d="M427.14,194.23c-.24,0-46.17,18.13-66.59,31.51-34,19.9-62.56,45.51-87.93,73.63s-50.4,63.11-72.66,93.77l.11,49.3L460.3,198.64Z"/><ellipse class="cls-6" cx="311.72" cy="277.11" rx="17.53" ry="5.89" transform="translate(-105.22 266.13) rotate(-40.13)"/><path class="cls-7" d="M674.6,330.91c1.38,4.92,2,10.13,3.29,14.86a1.56,1.56,0,0,0,.4.8,1.48,1.48,0,0,0,1,.25,17.42,17.42,0,0,0,9.59-2.92,2.38,2.38,0,0,0,1-1.1,2.58,2.58,0,0,0-.1-1.5c-1.26-4.55-2.51-9.1-3.79-13.65"/><path class="cls-7" d="M434.56,681.59c8.26-6.4,16.3-32.91,17.91-43.23,5.44-34.83,7.47-63.08,14.53-97.61s18.35-68.8,38.6-97.65c11.93-17,27-32,45.06-42.2,21.86-12.36,47.07-17.24,71.91-20.93l-.17,10.35c-34.53,3.77-60.44,9.59-87.41,35.31-14.85,12.07-34.83,42-41.56,59.87C473.8,537.69,473.09,575.26,464,632.67c-2,12.54-11.38,48-23.14,57.91A15.19,15.19,0,0,1,430.12,694Z"/><rect class="cls-7" x="318.03" y="642.53" width="125.61" height="58.63" rx="29.32"/><rect class="cls-7" x="385.19" y="617.48" width="44.92" height="34.23" rx="14.1" transform="translate(109.29 -58.13) rotate(9.41)"/><rect class="cls-7" x="324.95" y="621.19" width="48.55" height="30.52" rx="13.85" transform="translate(-98.14 64.71) rotate(-9.29)"/><path class="cls-5" d="M736.49,480.25c-2.52-29.19-19.08-49.94-49.82-47-25,2.41-40,17.88-40.14,38.79-.18,21.31,7.71,50.53,45.84,50.3C727.4,522.16,737.11,487.4,736.49,480.25Z"/><path class="cls-5" d="M183.27,531.24c17.21-48.69,50.54-89.81,84.58-128.65,70.11-80,147.94-156.46,244.21-201.75l-51.76-2.2S415.69,215.88,366,259.57,283.67,341.71,260,373.39s-60,69.05-60,69.05Z"/><path class="cls-7" d="M689.61,297.34c4.92,3.52,3.58,15.81,4.1,23.88a5.67,5.67,0,0,1-.42,3.17c-.73,1.28-2.28,1.79-3.7,2.2l-13.5,3.92c-2.75.79-6,1.5-8.24-.29-1.37-1.09-2-2.85-2.48-4.52-2-6.71-6.42-13.78-4.51-20.52,1.36-4.79,11.91-7.7,13.74-8.12C674.6,297.06,685.22,294.2,689.61,297.34Z"/><path class="cls-7" d="M690.41,343.37c1.62-1.4,3-2.71,4.85-1.57,5.35,3.4,18.09,46.37,2,46.62s-32.72-2.37-48,2.91c-3.86,1.33-7.58,3.09-11.52,4.14s-13.09,2-14.79-4.18c-1.11-4-.53-8.38.23-12.49a6.56,6.56,0,0,1,1.68-3.78c1.19-1.08,2.93-1.22,4.53-1.3l26.17-1.37a30.2,30.2,0,0,0,9.42-1.51c3-1.16,5.68-3.5,6.43-6.6.65-2.66-.2-5.43-.64-8.14s-.29-5.86,1.77-7.66c1.77-1.55,2.07-1.73,4.42-1.62C682.3,347.06,685.78,347.39,690.41,343.37Z"/><path class="cls-3" d="M260,226.79c6.91,8.31,23.88,26,30.79,34.27.51.61,13.46-8.12,12.54-11.77-2.65-10.44-23-25.45-30.28-33.39l-.38,0"/></g><g id="Flechas"><path class="cls-8" d="M219.78,255.36q32.41,33.76,61.55,70.47h.32"/><path class="cls-8" d="M275.62,290.59c1.9,5.33,12.35,34.69,7.62,37.79s-26.18-2-31.13-5.1"/><path class="cls-8" d="M200,440.39c3.83-4.15,24.76-32.62,21.63-37.33-3.24-4.86-34.21-6.37-40-5.48"/><path class="cls-8" d="M498.11,183.52c4.5-8.88,25.1-15.52,25.56-25.47a18.94,18.94,0,0,0-.87-7.53,8.89,8.89,0,0,0-5-5.42c-3-1.09-6.3,0-9.3,1.06-3.83,1.37-19.52,2.53-30.44,4.23-16,2-32.43-4.5-34.79-5.75"/><path class="cls-8" d="M478.83,131.74c-5.77,3-41.35,12.52-41.09,12.9,3.3,4.8,33.32,26.39,34.85,28.37"/><path class="cls-8" d="M767.44,349c-5.53-3.46-26.75-28.62-32.4-31.87-.4-.24-6.48,13.49-7.79,19.16-.56,2.44-4.36,17.83-5.3,20.15"/><path class="cls-8" d="M557.43,426.39c45.88-21.35,92.43-14,120.14-17.66,18.45-2.45,38.85-3.61,52-19,13.41-15.68,10.89-48.28,8.37-63.87"/><path class="cls-8" d="M111.67,363c-.73,4.36-4.7,30.15,11.32,47.65,18.57,20.28,57.56,22.4,88.52-2"/></g><g id="Hinchado"><path class="cls-9" d="M460.3,360l-48.5-15.78"/><path class="cls-9" d="M844.85,257.85c16-11.5,22.6-34.28,40.74-41.94"/><path class="cls-9" d="M920.57,363.68l50.17-24.86"/><path class="cls-9" d="M421.57,501.14a156.89,156.89,0,0,0-37.68,7"/><path class="cls-9" d="M529.32,256.44a354.7,354.7,0,0,1-38-8"/><path class="cls-9" d="M921.8,600.21a149.47,149.47,0,0,0,51.75,7.36"/><path class="cls-9" d="M699.32,207.22l11.59-68.41"/></g><g id="Números"><circle class="cls-10" cx="217.17" cy="194.23" r="32.13"/><path class="cls-11" d="M203.83,193.16S212,172,218.4,172.92c10,1.45,4.45,43.11,4.45,43.11"/><circle class="cls-10" cx="557.43" cy="202.94" r="32.13"/><path class="cls-12" d="M544.32,191.18s5.68-8.42,8.71-9.53c4.41-1.62,18.71-2.58,17.44,9.53-1.06,10-21.79,34-21.79,34l21.79-3.48"/><circle class="cls-10" cx="63.46" cy="345.09" r="32.13"/><path class="cls-13" d="M51.6,323.57s12.37-3.05,14.45-.09c3,4.26-7.23,19.52-7.23,19.52s12.08,1.41,14.45,4.35c4.42,5.48,3.47,15.15,0,18s-18.06,0-18.06,0"/><circle class="cls-10" cx="574.33" cy="471.87" r="32.13"/><path class="cls-14" d="M572.8,499s11.38-47.71,2.52-51c-5.92-2.21-17.54,21.95-14,27.2,3.32,5,26.73-3.92,26.73-3.92"/></g></svg>